<svg xmlns="http://www.w3.org/2000/svg" xmlns:xlink="http://www.w3.org/1999/xlink" width="100" zoomAndPan="magnify" viewBox="0 0 375 374.999991" height="70" preserveAspectRatio="xMidYMid meet" version="1.0"><defs><g/><clipPath id="id1"><path d="M 82.363281 158 L 303.402344 158 L 303.402344 191.164062 L 82.363281 191.164062 Z M 82.363281 158 " clip-rule="nonzero"/></clipPath><clipPath id="id2"><path d="M 49.632812 49.632812 L 325.632812 49.632812 L 325.632812 325.632812 L 49.632812 325.632812 Z M 49.632812 49.632812 " clip-rule="nonzero"/></clipPath><clipPath id="id3"><path d="M 89.0625 89.0625 L 286.3125 89.0625 L 286.3125 286.3125 L 89.0625 286.3125 Z M 89.0625 89.0625 " clip-rule="nonzero"/></clipPath><clipPath id="id4"><path d="M 288.738281 172.324219 L 318.738281 172.324219 L 318.738281 202.324219 L 288.738281 202.324219 Z M 288.738281 172.324219 " clip-rule="nonzero"/></clipPath><clipPath id="id5"><path d="M 55.910156 172.324219 L 85.910156 172.324219 L 85.910156 202.324219 L 55.910156 202.324219 Z M 55.910156 172.324219 " clip-rule="nonzero"/></clipPath></defs><rect x="-37.5" width="450" fill="#ffffff" y="-37.499999" height="449.999989" fill-opacity="1"/><rect x="-37.5" width="450" fill="#ffffff" y="-37.499999" height="449.999989" fill-opacity="1"/><rect x="-37.5" width="450" fill="#f0f0ea" y="-37.499999" height="449.999989" fill-opacity="1"/><path fill="#060644" d="M 264.300781 189.746094 C 258.289062 190.125 252.292969 190.488281 246.296875 190.800781 C 245.785156 190.570312 245.023438 190.417969 243.890625 190.34375 C 213.058594 188.765625 178.488281 187.882812 106.878906 184.160156 C 119.324219 183.324219 178.15625 185.40625 214.972656 186.558594 C 232.652344 187.117188 250.339844 187.851562 267.996094 188.925781 C 268.324219 188.933594 270.089844 189.097656 272.054688 189.363281 C 269.457031 189.449219 266.863281 189.582031 264.300781 189.746094 Z M 264.300781 189.746094 " fill-opacity="1" fill-rule="nonzero"/><g clip-path="url(#id1)"><path fill="#060644" d="M 82.765625 190.523438 C 83.148438 189.480469 83.546875 188.46875 84.136719 187.546875 C 83.535156 186.664062 83.289062 185.683594 83.375 184.476562 C 83.410156 184.140625 83.46875 183.804688 83.554688 183.476562 C 83.710938 182.789062 83.925781 181.839844 83.605469 181.515625 L 83.574219 181.476562 C 83.441406 181.335938 83.347656 181.171875 83.300781 180.984375 C 83.289062 180.910156 83.277344 180.839844 83.269531 180.773438 L 83.269531 180.679688 C 83.289062 178.527344 83.785156 177.128906 86.265625 176.320312 C 87.828125 175.808594 89.664062 175.800781 91.285156 175.792969 L 91.949219 175.792969 C 94.320312 175.769531 96.6875 175.648438 98.941406 175.449219 C 100.472656 175.199219 102.015625 174.660156 103.511719 174.144531 C 104 173.972656 104.480469 173.804688 104.964844 173.648438 C 106.472656 173.15625 107.984375 172.652344 109.496094 172.15625 C 112.035156 171.320312 114.664062 170.453125 117.261719 169.617188 C 126.558594 166.628906 136.5 163.558594 146.695312 161.769531 C 165.175781 158.164062 183.113281 157.414062 199.992188 159.542969 C 216.550781 161.628906 231.320312 169.425781 245.601562 176.953125 L 248.363281 178.414062 C 257.535156 178.453125 269.476562 178.921875 280.746094 182.191406 C 287.546875 184.160156 294.542969 186.871094 301.558594 190.257812 L 303.449219 191.164062 L 297.949219 191.152344 L 297.863281 191.117188 C 293.25 189.125 285.96875 186.292969 280.964844 184.742188 C 269.917969 181.316406 258.136719 180.824219 248.074219 180.792969 C 247.878906 180.792969 247.695312 180.75 247.523438 180.660156 L 247.488281 180.640625 C 246.457031 180.101562 245.425781 179.558594 244.402344 179.015625 C 230.550781 171.710938 216.234375 164.15625 200.289062 161.976562 C 183.828125 159.722656 165.984375 160.429688 147.238281 164.089844 C 137.234375 165.847656 127.269531 168.914062 117.925781 171.902344 C 115.082031 172.8125 112.207031 173.761719 109.421875 174.679688 L 106.0625 175.789062 L 104.492188 176.332031 C 102.828125 176.910156 101.105469 177.511719 99.363281 177.785156 L 99.277344 177.796875 L 99.144531 177.816406 C 96.78125 178.035156 94.183594 178.15625 91.195312 178.179688 C 89.742188 178.195312 88.300781 178.34375 86.875 178.617188 C 86.296875 178.722656 86.003906 178.929688 85.851562 179.234375 C 89.167969 179.25 92.386719 179.949219 95.128906 180.648438 L 95.898438 180.839844 C 97.964844 181.347656 100.3125 181.933594 102.148438 183.046875 C 102.503906 183.265625 102.710938 183.617188 102.71875 183.972656 C 102.730469 184.101562 102.722656 184.226562 102.699219 184.351562 C 101.863281 188.421875 97.402344 188.726562 95.9375 188.824219 C 92.445312 189.0625 89.1875 188.996094 86.25 188.625 C 85.695312 189.375 85.324219 190.203125 85.058594 190.867188 L 84.9375 191.164062 L 82.527344 191.164062 Z M 86.515625 186.273438 C 88.828125 186.558594 91.234375 186.558594 93.707031 186.527344 L 94.242188 186.527344 C 96.421875 186.511719 99.097656 186.5 100.078125 184.65625 C 98.875 184.101562 97.496094 183.742188 96.164062 183.390625 L 95.109375 183.113281 C 91.585938 182.136719 88.6875 181.667969 86.070312 181.632812 C 86.105469 182.191406 86.003906 182.789062 85.914062 183.378906 C 85.679688 184.828125 85.601562 185.761719 86.515625 186.273438 Z M 86.515625 186.273438 " fill-opacity="1" fill-rule="nonzero"/></g><path fill="#060644" d="M 122.285156 178.59375 C 122.285156 178.59375 124.246094 179.339844 125.101562 179.507812 C 126.539062 179.777344 131.46875 180.335938 131.46875 180.335938 C 126.511719 180.757812 105.480469 179.453125 106.402344 179.453125 C 111.371094 179.453125 118.414062 178.917969 122.285156 178.59375 Z M 122.285156 178.59375 " fill-opacity="1" fill-rule="nonzero"/><path fill="#060644" d="M 120.984375 174.199219 C 120.203125 173.402344 120.964844 172.957031 121.179688 172.886719 C 141.71875 166.003906 164.023438 162.242188 185.804688 162.59375 C 187.613281 162.625 189.421875 162.679688 191.21875 162.765625 C 204.664062 163.414062 217.789062 167.574219 229.804688 173.707031 L 229.824219 173.707031 C 230.054688 173.820312 230.289062 173.9375 230.507812 174.058594 C 234.550781 176.167969 238.476562 178.484375 242.28125 181.003906 C 243.289062 181.742188 243.074219 182.289062 241.960938 182.4375 C 240.710938 182.535156 238.75 182.488281 237.183594 182.503906 C 235.222656 182.527344 227.398438 182.390625 219.300781 182.222656 C 212.261719 182.078125 205.027344 181.914062 201.265625 181.792969 C 188.429688 181.402344 175.621094 180.996094 162.777344 180.792969 C 155.820312 180.679688 148.863281 180.535156 141.917969 180.164062 C 137.652344 179.9375 132.90625 179.957031 128.804688 178.625 C 125.84375 177.71875 123.179688 176.417969 120.984375 174.199219 Z M 239.929688 181.175781 C 237.945312 179.914062 235.925781 178.695312 233.867188 177.523438 C 234.28125 178.597656 234.28125 179.796875 233.660156 181.0625 C 235.722656 181.128906 237.847656 181.261719 239.929688 181.175781 Z M 190.847656 179.929688 C 198.375 180.1875 205.902344 180.515625 213.4375 180.691406 L 219.328125 180.820312 L 223.964844 180.90625 C 222.832031 178.863281 222.886719 177.226562 223.460938 176.035156 C 224.132812 174.621094 225.503906 173.828125 226.476562 173.667969 C 215.40625 168.371094 203.476562 164.84375 191.230469 164.195312 C 189.421875 164.101562 187.601562 164.035156 185.785156 164.003906 C 188.125 169.019531 189.515625 174.589844 190.847656 179.929688 Z M 183.480469 179.964844 L 184.9375 179.976562 C 184.550781 175.882812 182.957031 169.519531 182.019531 165.515625 C 182.019531 165.515625 183.109375 175.992188 183.480469 179.964844 Z M 148.457031 179.015625 C 157.425781 179.335938 166.394531 179.421875 175.363281 179.527344 L 177.859375 179.574219 C 177.800781 174.394531 177.363281 169.226562 177.058594 164.0625 C 168.785156 164.347656 160.566406 165.175781 152.402344 166.554688 C 152.386719 166.574219 152.367188 166.59375 152.347656 166.609375 C 148.109375 170.261719 144.179688 174.371094 140.554688 178.660156 C 143.191406 178.816406 145.828125 178.921875 148.457031 179.015625 Z M 136.609375 178.378906 C 137.332031 178.441406 138.0625 178.484375 138.789062 178.539062 C 142.164062 174.488281 145.808594 170.566406 149.730469 167.011719 C 140.574219 168.683594 131.574219 170.972656 122.730469 173.878906 C 124.589844 175.503906 126.765625 176.503906 129.175781 177.246094 C 131.589844 177.988281 134.144531 178.167969 136.609375 178.378906 Z M 136.609375 178.378906 " fill-opacity="1" fill-rule="nonzero"/><g clip-path="url(#id2)"><path fill="#060644" d="M 187.632812 325.632812 C 111.5625 325.632812 49.632812 263.703125 49.632812 187.632812 C 49.632812 111.5625 111.5625 49.632812 187.632812 49.632812 C 263.703125 49.632812 325.632812 111.5625 325.632812 187.632812 C 325.632812 263.703125 263.703125 325.632812 187.632812 325.632812 Z M 187.632812 51.671875 C 112.648438 51.671875 51.671875 112.648438 51.671875 187.632812 C 51.671875 262.613281 112.648438 323.59375 187.632812 323.59375 C 262.613281 323.59375 323.59375 262.613281 323.59375 187.632812 C 323.59375 112.648438 262.613281 51.671875 187.632812 51.671875 Z M 187.632812 51.671875 " fill-opacity="1" fill-rule="nonzero"/></g><g clip-path="url(#id3)"><path fill="#060644" d="M 187.6875 286.3125 C 133.324219 286.3125 89.0625 242.050781 89.0625 187.6875 C 89.0625 133.324219 133.324219 89.0625 187.6875 89.0625 C 242.050781 89.0625 286.3125 133.324219 286.3125 187.6875 C 286.3125 242.050781 242.050781 286.3125 187.6875 286.3125 Z M 187.6875 90.519531 C 134.101562 90.519531 90.519531 134.101562 90.519531 187.6875 C 90.519531 241.273438 134.101562 284.855469 187.6875 284.855469 C 241.273438 284.855469 284.855469 241.273438 284.855469 187.6875 C 284.855469 134.101562 241.273438 90.519531 187.6875 90.519531 Z M 187.6875 90.519531 " fill-opacity="1" fill-rule="nonzero"/></g><g fill="#060644" fill-opacity="1"><g transform="translate(162.710355, 244.712203)"><g><path d="M 32.828125 -30.324219 L 44.683594 -0.0351562 L 61.617188 -43.214844 C 63.152344 -47.191406 64.824219 -47.890625 64.824219 -47.890625 L 61.285156 -47.890625 C 61.285156 -47.890625 62.386719 -47.191406 60.847656 -43.214844 L 46.355469 -6.179688 L 31.859375 -43.214844 C 30.289062 -47.191406 31.425781 -47.890625 31.425781 -47.890625 L 24.582031 -47.890625 C 24.582031 -47.890625 26.214844 -47.191406 27.785156 -43.214844 L 32.460938 -31.292969 L 22.609375 -6.179688 L 8.117188 -43.214844 C 6.578125 -47.191406 7.679688 -47.890625 7.679688 -47.890625 L 0.835938 -47.890625 C 0.835938 -47.890625 2.503906 -47.191406 4.074219 -43.214844 L 20.972656 -0.0351562 Z M 32.828125 -30.324219 "/></g></g></g><g fill="#060644" fill-opacity="1"><g transform="translate(229.036535, 244.712203)"><g><path d="M 33.964844 -5.542969 L 6.277344 -47.859375 L 0.835938 -47.859375 C 0.835938 -47.859375 2.4375 -46.855469 2.4375 -43.449219 L 2.4375 -4.675781 C 2.4375 -0.703125 1.070312 -0.0351562 1.070312 -0.0351562 L 4.609375 -0.0351562 C 4.609375 -0.0351562 3.207031 -0.703125 3.207031 -4.675781 L 3.207031 -43.484375 C 3.207031 -44.285156 3.273438 -44.953125 3.375 -45.488281 C 3.742188 -44.953125 33.964844 -0.0351562 33.964844 -0.0351562 L 34.699219 -0.0351562 L 34.734375 -43.484375 C 34.734375 -47.457031 36.136719 -47.859375 36.136719 -47.859375 L 32.59375 -47.859375 C 32.59375 -47.859375 33.964844 -47.421875 33.964844 -43.449219 Z M 33.964844 -5.542969 "/></g></g></g><g fill="#060644" fill-opacity="1"><g transform="translate(95.555988, 124.348083)"><g><path d="M -6.265625 -6.28125 L -5.71875 -7.03125 L 1.375 -1.90625 L 0.828125 -1.15625 Z M -6.265625 -6.28125 "/></g></g></g><g fill="#060644" fill-opacity="1"><g transform="translate(99.393147, 119.032629)"><g><path d="M 1.640625 -8.609375 L 2.21875 -9.28125 L 4.75 -7.09375 C 4.75 -6.550781 4.640625 -6.003906 4.421875 -5.453125 C 4.203125 -4.910156 3.894531 -4.40625 3.5 -3.9375 C 2.925781 -3.28125 2.265625 -2.804688 1.515625 -2.515625 C 0.765625 -2.234375 0.00390625 -2.164062 -0.765625 -2.3125 C -1.546875 -2.457031 -2.253906 -2.804688 -2.890625 -3.359375 C -3.523438 -3.910156 -3.96875 -4.550781 -4.21875 -5.28125 C -4.476562 -6.019531 -4.523438 -6.785156 -4.359375 -7.578125 C -4.191406 -8.367188 -3.816406 -9.097656 -3.234375 -9.765625 C -2.804688 -10.273438 -2.328125 -10.671875 -1.796875 -10.953125 C -1.273438 -11.234375 -0.734375 -11.382812 -0.171875 -11.40625 L -0.09375 -10.578125 C -1.070312 -10.492188 -1.90625 -10.050781 -2.59375 -9.25 C -3.050781 -8.707031 -3.347656 -8.117188 -3.484375 -7.484375 C -3.617188 -6.847656 -3.582031 -6.226562 -3.375 -5.625 C -3.175781 -5.019531 -2.816406 -4.492188 -2.296875 -4.046875 C -1.773438 -3.597656 -1.203125 -3.316406 -0.578125 -3.203125 C 0.046875 -3.085938 0.664062 -3.140625 1.28125 -3.359375 C 1.894531 -3.578125 2.429688 -3.957031 2.890625 -4.5 C 3.484375 -5.1875 3.8125 -5.910156 3.875 -6.671875 Z M 1.640625 -8.609375 "/></g></g></g><g fill="#060644" fill-opacity="1"><g transform="translate(107.413563, 109.770332)"><g><path d="M 4.15625 -15.5 L 7.796875 -7 L 7.078125 -6.359375 L 0.1875 -10.203125 L 3.25 -2.921875 L 2.53125 -2.28125 L -5.5 -6.828125 L -4.796875 -7.453125 L 2.109375 -3.53125 L -0.96875 -10.890625 L -0.328125 -11.46875 L 6.625 -7.5625 L 3.484375 -14.90625 Z M 4.15625 -15.5 "/></g></g></g><g fill="#060644" fill-opacity="1"><g transform="translate(119.892261, 99.000348)"><g><path d="M 5.78125 -5.015625 L 6.234375 -4.359375 L 1.171875 -0.8125 L -3.84375 -7.984375 L 1.0625 -11.421875 L 1.53125 -10.765625 L -2.625 -7.859375 L -0.859375 -5.3125 L 2.859375 -7.90625 L 3.328125 -7.25 L -0.390625 -4.65625 L 1.46875 -2 Z M 5.78125 -5.015625 "/></g></g></g><g fill="#060644" fill-opacity="1"><g transform="translate(129.164409, 92.776882)"><g/></g></g><g fill="#060644" fill-opacity="1"><g transform="translate(134.398268, 89.687215)"><g><path d="M 5.171875 -5.140625 L 0.796875 -3 L 0.890625 -0.4375 L 0.03125 -0.015625 L -0.203125 -9.625 L 0.609375 -10.015625 L 8.03125 -3.921875 L 7.15625 -3.484375 Z M 4.546875 -5.65625 L 0.609375 -8.953125 L 0.78125 -3.828125 Z M 4.546875 -5.65625 "/></g></g></g><g fill="#060644" fill-opacity="1"><g transform="translate(144.907649, 84.699947)"><g><path d="M 4.6875 -1.59375 C 3.625 -1.207031 2.679688 -1.210938 1.859375 -1.609375 C 1.035156 -2.015625 0.414062 -2.800781 0 -3.96875 L -1.703125 -8.6875 L -0.828125 -9 L 0.859375 -4.328125 C 1.203125 -3.359375 1.675781 -2.71875 2.28125 -2.40625 C 2.882812 -2.09375 3.59375 -2.082031 4.40625 -2.375 C 5.226562 -2.675781 5.769531 -3.140625 6.03125 -3.765625 C 6.289062 -4.390625 6.25 -5.1875 5.90625 -6.15625 L 4.21875 -10.828125 L 5.0625 -11.125 L 6.765625 -6.40625 C 7.179688 -5.238281 7.207031 -4.238281 6.84375 -3.40625 C 6.476562 -2.582031 5.757812 -1.976562 4.6875 -1.59375 Z M 4.6875 -1.59375 "/></g></g></g><g fill="#060644" fill-opacity="1"><g transform="translate(156.829716, 80.622352)"><g><path d="M 1.09375 -8.484375 L -1.890625 -7.734375 L -2.078125 -8.5 L 4.78125 -10.21875 L 4.96875 -9.453125 L 1.984375 -8.703125 L 3.921875 -0.984375 L 3.03125 -0.765625 Z M 1.09375 -8.484375 "/></g></g></g><g fill="#060644" fill-opacity="1"><g transform="translate(166.41801, 78.274052)"><g><path d="M 5.21875 -0.671875 C 4.351562 -0.546875 3.546875 -0.625 2.796875 -0.90625 C 2.046875 -1.195312 1.425781 -1.644531 0.9375 -2.25 C 0.457031 -2.863281 0.15625 -3.585938 0.03125 -4.421875 C -0.0820312 -5.253906 0.00390625 -6.03125 0.296875 -6.75 C 0.585938 -7.476562 1.050781 -8.082031 1.6875 -8.5625 C 2.320312 -9.050781 3.070312 -9.359375 3.9375 -9.484375 C 4.789062 -9.609375 5.585938 -9.53125 6.328125 -9.25 C 7.078125 -8.96875 7.703125 -8.519531 8.203125 -7.90625 C 8.703125 -7.289062 9.007812 -6.566406 9.125 -5.734375 C 9.25 -4.898438 9.15625 -4.117188 8.84375 -3.390625 C 8.539062 -2.660156 8.070312 -2.054688 7.4375 -1.578125 C 6.8125 -1.097656 6.070312 -0.796875 5.21875 -0.671875 Z M 5.09375 -1.5 C 5.769531 -1.59375 6.363281 -1.832031 6.875 -2.21875 C 7.394531 -2.613281 7.769531 -3.101562 8 -3.6875 C 8.226562 -4.28125 8.289062 -4.914062 8.1875 -5.59375 C 8.09375 -6.269531 7.851562 -6.859375 7.46875 -7.359375 C 7.082031 -7.867188 6.585938 -8.238281 5.984375 -8.46875 C 5.378906 -8.695312 4.738281 -8.765625 4.0625 -8.671875 C 3.375 -8.566406 2.773438 -8.316406 2.265625 -7.921875 C 1.753906 -7.535156 1.378906 -7.046875 1.140625 -6.453125 C 0.898438 -5.859375 0.828125 -5.222656 0.921875 -4.546875 C 1.023438 -3.867188 1.273438 -3.28125 1.671875 -2.78125 C 2.066406 -2.28125 2.5625 -1.914062 3.15625 -1.6875 C 3.757812 -1.457031 4.40625 -1.394531 5.09375 -1.5 Z M 5.09375 -1.5 "/></g></g></g><g fill="#060644" fill-opacity="1"><g transform="translate(179.478535, 76.609512)"><g><path d="M 3.84375 -0.0625 C 3.1875 -0.0390625 2.554688 -0.125 1.953125 -0.3125 C 1.359375 -0.5 0.890625 -0.753906 0.546875 -1.078125 L 0.890625 -1.8125 C 1.210938 -1.5 1.640625 -1.253906 2.171875 -1.078125 C 2.703125 -0.910156 3.25 -0.835938 3.8125 -0.859375 C 4.59375 -0.890625 5.171875 -1.054688 5.546875 -1.359375 C 5.929688 -1.660156 6.113281 -2.039062 6.09375 -2.5 C 6.082031 -2.84375 5.96875 -3.113281 5.75 -3.3125 C 5.53125 -3.519531 5.265625 -3.671875 4.953125 -3.765625 C 4.640625 -3.867188 4.203125 -3.976562 3.640625 -4.09375 C 2.984375 -4.238281 2.457031 -4.378906 2.0625 -4.515625 C 1.664062 -4.648438 1.316406 -4.867188 1.015625 -5.171875 C 0.722656 -5.484375 0.566406 -5.910156 0.546875 -6.453125 C 0.535156 -6.898438 0.640625 -7.304688 0.859375 -7.671875 C 1.078125 -8.046875 1.421875 -8.347656 1.890625 -8.578125 C 2.367188 -8.816406 2.96875 -8.953125 3.6875 -8.984375 C 4.1875 -9.003906 4.675781 -8.953125 5.15625 -8.828125 C 5.644531 -8.703125 6.066406 -8.523438 6.421875 -8.296875 L 6.140625 -7.5625 C 5.765625 -7.78125 5.363281 -7.941406 4.9375 -8.046875 C 4.519531 -8.148438 4.113281 -8.195312 3.71875 -8.1875 C 2.945312 -8.15625 2.375 -7.984375 2 -7.671875 C 1.632812 -7.367188 1.457031 -6.984375 1.46875 -6.515625 C 1.488281 -6.160156 1.601562 -5.878906 1.8125 -5.671875 C 2.03125 -5.472656 2.300781 -5.320312 2.625 -5.21875 C 2.957031 -5.125 3.394531 -5.019531 3.9375 -4.90625 C 4.59375 -4.769531 5.117188 -4.628906 5.515625 -4.484375 C 5.921875 -4.347656 6.265625 -4.128906 6.546875 -3.828125 C 6.828125 -3.523438 6.976562 -3.109375 7 -2.578125 C 7.019531 -2.140625 6.921875 -1.734375 6.703125 -1.359375 C 6.484375 -0.992188 6.128906 -0.691406 5.640625 -0.453125 C 5.148438 -0.222656 4.550781 -0.09375 3.84375 -0.0625 Z M 3.84375 -0.0625 "/></g></g></g><g fill="#060644" fill-opacity="1"><g transform="translate(189.982811, 76.39409)"><g/></g></g><g fill="#060644" fill-opacity="1"><g transform="translate(195.975682, 76.478459)"><g><path d="M 14.5 -6.84375 L 10.390625 1.421875 L 9.421875 1.296875 L 7.90625 -6.46875 L 4.328125 0.59375 L 3.375 0.46875 L 1.65625 -8.609375 L 2.578125 -8.484375 L 4.078125 -0.671875 L 7.671875 -7.78125 L 8.53125 -7.671875 L 10.046875 0.1875 L 13.625 -6.96875 Z M 14.5 -6.84375 "/></g></g></g><g fill="#060644" fill-opacity="1"><g transform="translate(212.229541, 78.988389)"><g><path d="M 5.046875 1.46875 C 4.210938 1.238281 3.507812 0.835938 2.9375 0.265625 C 2.363281 -0.296875 1.972656 -0.953125 1.765625 -1.703125 C 1.566406 -2.453125 1.578125 -3.234375 1.796875 -4.046875 C 2.015625 -4.859375 2.40625 -5.535156 2.96875 -6.078125 C 3.53125 -6.628906 4.195312 -7 4.96875 -7.1875 C 5.75 -7.375 6.554688 -7.351562 7.390625 -7.125 C 8.222656 -6.894531 8.925781 -6.503906 9.5 -5.953125 C 10.070312 -5.398438 10.460938 -4.738281 10.671875 -3.96875 C 10.878906 -3.207031 10.875 -2.421875 10.65625 -1.609375 C 10.4375 -0.796875 10.039062 -0.117188 9.46875 0.421875 C 8.894531 0.960938 8.222656 1.328125 7.453125 1.515625 C 6.679688 1.710938 5.878906 1.695312 5.046875 1.46875 Z M 5.265625 0.671875 C 5.929688 0.847656 6.578125 0.859375 7.203125 0.703125 C 7.828125 0.554688 8.363281 0.257812 8.8125 -0.1875 C 9.257812 -0.632812 9.570312 -1.191406 9.75 -1.859375 C 9.925781 -2.523438 9.9375 -3.164062 9.78125 -3.78125 C 9.625 -4.394531 9.316406 -4.925781 8.859375 -5.375 C 8.398438 -5.832031 7.835938 -6.148438 7.171875 -6.328125 C 6.503906 -6.515625 5.859375 -6.53125 5.234375 -6.375 C 4.609375 -6.21875 4.066406 -5.914062 3.609375 -5.46875 C 3.148438 -5.03125 2.832031 -4.476562 2.65625 -3.8125 C 2.476562 -3.144531 2.472656 -2.5 2.640625 -1.875 C 2.804688 -1.257812 3.117188 -0.726562 3.578125 -0.28125 C 4.035156 0.164062 4.597656 0.484375 5.265625 0.671875 Z M 5.265625 0.671875 "/></g></g></g><g fill="#060644" fill-opacity="1"><g transform="translate(224.853113, 82.643706)"><g><path d="M 6.890625 2.734375 L 6.0625 -0.609375 C 5.84375 -0.671875 5.625 -0.75 5.40625 -0.84375 L 3.203125 -1.71875 L 2.171875 0.859375 L 1.328125 0.53125 L 4.5625 -7.59375 L 7.609375 -6.390625 C 8.640625 -5.972656 9.351562 -5.398438 9.75 -4.671875 C 10.144531 -3.953125 10.171875 -3.15625 9.828125 -2.28125 C 9.566406 -1.644531 9.1875 -1.171875 8.6875 -0.859375 C 8.1875 -0.554688 7.609375 -0.425781 6.953125 -0.46875 L 7.8125 3.109375 Z M 5.65625 -1.59375 C 6.457031 -1.269531 7.140625 -1.203125 7.703125 -1.390625 C 8.273438 -1.578125 8.691406 -1.988281 8.953125 -2.625 C 9.210938 -3.28125 9.195312 -3.867188 8.90625 -4.390625 C 8.625 -4.921875 8.082031 -5.347656 7.28125 -5.671875 L 5.109375 -6.53125 L 3.484375 -2.453125 Z M 5.65625 -1.59375 "/></g></g></g><g fill="#060644" fill-opacity="1"><g transform="translate(235.710308, 87.140763)"><g><path d="M 5.265625 -7.125 L 6.078125 -6.703125 L 2.4375 0.375 L 6.8125 2.609375 L 6.453125 3.3125 L 1.265625 0.65625 Z M 5.265625 -7.125 "/></g></g></g><g fill="#060644" fill-opacity="1"><g transform="translate(244.624522, 91.800052)"><g><path d="M 5.96875 -6.546875 L 8.953125 -4.609375 C 9.734375 -4.097656 10.316406 -3.492188 10.703125 -2.796875 C 11.097656 -2.109375 11.273438 -1.378906 11.234375 -0.609375 C 11.203125 0.160156 10.953125 0.898438 10.484375 1.609375 C 10.015625 2.328125 9.4375 2.859375 8.75 3.203125 C 8.070312 3.546875 7.332031 3.675781 6.53125 3.59375 C 5.738281 3.519531 4.953125 3.226562 4.171875 2.71875 L 1.1875 0.78125 Z M 4.578125 2.03125 C 5.222656 2.445312 5.867188 2.679688 6.515625 2.734375 C 7.160156 2.796875 7.757812 2.691406 8.3125 2.421875 C 8.875 2.148438 9.347656 1.71875 9.734375 1.125 C 10.117188 0.539062 10.320312 -0.0625 10.34375 -0.6875 C 10.375 -1.3125 10.234375 -1.90625 9.921875 -2.46875 C 9.609375 -3.039062 9.128906 -3.535156 8.484375 -3.953125 L 6.3125 -5.375 L 2.40625 0.609375 Z M 4.578125 2.03125 "/></g></g></g><g fill="#060644" fill-opacity="1"><g transform="translate(255.438505, 99.175086)"><g/></g></g><g fill="#060644" fill-opacity="1"><g transform="translate(260.227306, 102.882834)"><g><path d="M 12.359375 -0.484375 L 6.40625 5.9375 L 5.84375 5.421875 L 6.546875 -3.609375 L 1.71875 1.59375 L 1.046875 0.96875 L 7 -5.453125 L 7.5625 -4.9375 L 6.859375 4.109375 L 11.6875 -1.09375 Z M 12.359375 -0.484375 "/></g></g></g><g fill="#060644" fill-opacity="1"><g transform="translate(269.523742, 111.855411)"><g><path d="M 7.4375 -4.828125 L 8.0625 -4.140625 L 1.578125 1.734375 L 0.953125 1.046875 Z M 7.4375 -4.828125 "/></g></g></g><g fill="#060644" fill-opacity="1"><g transform="translate(273.929974, 116.709312)"><g><path d="M 8.09375 3.375 L 8.625 4.078125 L 5.953125 6.109375 C 5.421875 6.003906 4.910156 5.785156 4.421875 5.453125 C 3.929688 5.128906 3.5 4.722656 3.125 4.234375 C 2.59375 3.535156 2.269531 2.789062 2.15625 2 C 2.039062 1.207031 2.128906 0.445312 2.421875 -0.28125 C 2.710938 -1.007812 3.195312 -1.628906 3.875 -2.140625 C 4.539062 -2.648438 5.265625 -2.953125 6.046875 -3.046875 C 6.828125 -3.140625 7.582031 -3.023438 8.3125 -2.703125 C 9.039062 -2.378906 9.675781 -1.863281 10.21875 -1.15625 C 10.625 -0.625 10.910156 -0.0703125 11.078125 0.5 C 11.253906 1.070312 11.289062 1.632812 11.1875 2.1875 L 10.375 2.09375 C 10.488281 1.113281 10.222656 0.203125 9.578125 -0.640625 C 9.148438 -1.203125 8.632812 -1.613281 8.03125 -1.875 C 7.4375 -2.132812 6.820312 -2.222656 6.1875 -2.140625 C 5.5625 -2.066406 4.976562 -1.820312 4.4375 -1.40625 C 3.882812 -0.988281 3.488281 -0.488281 3.25 0.09375 C 3.007812 0.6875 2.929688 1.300781 3.015625 1.9375 C 3.109375 2.582031 3.375 3.191406 3.8125 3.765625 C 4.351562 4.484375 4.992188 4.953125 5.734375 5.171875 Z M 8.09375 3.375 "/></g></g></g><g fill="#060644" fill-opacity="1"><g transform="translate(75.045242, 229.538126)"><g><path d="M 7.109375 5.125 L 7.46875 5.921875 L 4.421875 7.296875 C 3.929688 7.078125 3.484375 6.75 3.078125 6.3125 C 2.671875 5.882812 2.335938 5.390625 2.078125 4.828125 C 1.722656 4.035156 1.578125 3.238281 1.640625 2.4375 C 1.703125 1.644531 1.957031 0.925781 2.40625 0.28125 C 2.863281 -0.363281 3.476562 -0.859375 4.25 -1.203125 C 5.019531 -1.546875 5.796875 -1.675781 6.578125 -1.59375 C 7.359375 -1.507812 8.066406 -1.222656 8.703125 -0.734375 C 9.347656 -0.253906 9.851562 0.382812 10.21875 1.1875 C 10.488281 1.800781 10.640625 2.40625 10.671875 3 C 10.710938 3.59375 10.617188 4.148438 10.390625 4.671875 L 9.625 4.390625 C 9.96875 3.472656 9.921875 2.53125 9.484375 1.5625 C 9.191406 0.914062 8.785156 0.394531 8.265625 0 C 7.742188 -0.394531 7.160156 -0.625 6.515625 -0.6875 C 5.878906 -0.757812 5.25 -0.65625 4.625 -0.375 C 4 -0.09375 3.503906 0.304688 3.140625 0.828125 C 2.773438 1.347656 2.5625 1.929688 2.5 2.578125 C 2.445312 3.222656 2.566406 3.867188 2.859375 4.515625 C 3.234375 5.335938 3.753906 5.945312 4.421875 6.34375 Z M 7.109375 5.125 "/></g></g></g><g fill="#060644" fill-opacity="1"><g transform="translate(80.700424, 241.583076)"><g><path d="M 3.75 6.390625 L 5.15625 3.234375 C 5.03125 3.046875 4.90625 2.851562 4.78125 2.65625 L 3.59375 0.609375 L 1.1875 2.015625 L 0.71875 1.21875 L 8.265625 -3.203125 L 9.921875 -0.359375 C 10.484375 0.597656 10.695312 1.484375 10.5625 2.296875 C 10.425781 3.109375 9.953125 3.753906 9.140625 4.234375 C 8.554688 4.578125 7.972656 4.71875 7.390625 4.65625 C 6.804688 4.59375 6.265625 4.34375 5.765625 3.90625 L 4.25 7.25 Z M 5.4375 2.234375 C 5.875 2.984375 6.375 3.453125 6.9375 3.640625 C 7.507812 3.835938 8.085938 3.765625 8.671875 3.421875 C 9.285156 3.054688 9.640625 2.582031 9.734375 2 C 9.828125 1.425781 9.65625 0.765625 9.21875 0.015625 L 8.046875 -2 L 4.265625 0.21875 Z M 5.4375 2.234375 "/></g></g></g><g fill="#060644" fill-opacity="1"><g transform="translate(87.275267, 252.392682)"><g><path d="M 5.140625 5.671875 L 4.5 6.140625 L 0.84375 1.140625 L 7.90625 -4.03125 L 11.453125 0.8125 L 10.8125 1.28125 L 7.8125 -2.8125 L 5.296875 -0.96875 L 7.96875 2.6875 L 7.328125 3.15625 L 4.65625 -0.5 L 2.03125 1.421875 Z M 5.140625 5.671875 "/></g></g></g><g fill="#060644" fill-opacity="1"><g transform="translate(94.485094, 261.959294)"><g><path d="M 6.359375 3.5625 L 3.09375 -0.046875 L 0.65625 0.734375 L 0.015625 0.015625 L 9.203125 -2.859375 L 9.796875 -2.1875 L 5.984375 6.640625 L 5.328125 5.921875 Z M 6.703125 2.828125 L 8.765625 -1.875 L 3.890625 -0.296875 Z M 6.703125 2.828125 "/></g></g></g><g fill="#060644" fill-opacity="1"><g transform="translate(103.042974, 271.144297)"><g><path d="M 7.671875 -3.75 L 5.40625 -5.828125 L 5.9375 -6.421875 L 11.15625 -1.640625 L 10.625 -1.046875 L 8.359375 -3.125 L 2.984375 2.734375 L 2.296875 2.109375 Z M 7.671875 -3.75 "/></g></g></g><g fill="#060644" fill-opacity="1"><g transform="translate(111.030866, 278.194281)"><g/></g></g><g fill="#060644" fill-opacity="1"><g transform="translate(116.376081, 282.394065)"><g><path d="M 8.78125 -4.640625 C 9.707031 -4.023438 10.285156 -3.316406 10.515625 -2.515625 C 10.742188 -1.722656 10.597656 -0.941406 10.078125 -0.171875 C 9.554688 0.609375 8.882812 1.039062 8.0625 1.125 C 7.25 1.207031 6.378906 0.941406 5.453125 0.328125 L 3.5 -1 L 1.953125 1.296875 L 1.1875 0.796875 L 6.0625 -6.46875 Z M 5.859375 -0.375 C 6.578125 0.113281 7.234375 0.328125 7.828125 0.265625 C 8.421875 0.203125 8.910156 -0.113281 9.296875 -0.6875 C 9.691406 -1.269531 9.800781 -1.847656 9.625 -2.421875 C 9.457031 -2.992188 9.015625 -3.523438 8.296875 -4.015625 L 6.375 -5.3125 L 3.9375 -1.671875 Z M 5.859375 -0.375 "/></g></g></g><g fill="#060644" fill-opacity="1"><g transform="translate(126.94978, 289.254661)"><g><path d="M 6.546875 3.453125 L 6.09375 0.046875 C 5.875 -0.046875 5.660156 -0.144531 5.453125 -0.25 L 3.375 -1.359375 L 2.078125 1.09375 L 1.25 0.671875 L 5.34375 -7.0625 L 8.25 -5.53125 C 9.238281 -5.007812 9.890625 -4.363281 10.203125 -3.59375 C 10.515625 -2.832031 10.453125 -2.035156 10.015625 -1.203125 C 9.691406 -0.597656 9.265625 -0.171875 8.734375 0.078125 C 8.203125 0.328125 7.609375 0.394531 6.953125 0.28125 L 7.4375 3.921875 Z M 5.796875 -0.96875 C 6.566406 -0.5625 7.242188 -0.421875 7.828125 -0.546875 C 8.410156 -0.671875 8.863281 -1.035156 9.1875 -1.640625 C 9.519531 -2.265625 9.570312 -2.851562 9.34375 -3.40625 C 9.113281 -3.957031 8.613281 -4.4375 7.84375 -4.84375 L 5.796875 -5.9375 L 3.75 -2.0625 Z M 5.796875 -0.96875 "/></g></g></g><g fill="#060644" fill-opacity="1"><g transform="translate(138.170501, 294.900753)"><g><path d="M 4.75 -7.484375 L 5.59375 -7.125 L 2.15625 0.921875 L 1.3125 0.5625 Z M 4.75 -7.484375 "/></g></g></g><g fill="#060644" fill-opacity="1"><g transform="translate(144.903447, 297.73964)"><g><path d="M 4.921875 1.734375 C 4.097656 1.460938 3.421875 1.03125 2.890625 0.4375 C 2.359375 -0.144531 2.007812 -0.820312 1.84375 -1.59375 C 1.6875 -2.363281 1.742188 -3.148438 2.015625 -3.953125 C 2.273438 -4.742188 2.703125 -5.398438 3.296875 -5.921875 C 3.890625 -6.441406 4.578125 -6.769531 5.359375 -6.90625 C 6.140625 -7.050781 6.941406 -6.988281 7.765625 -6.71875 C 8.378906 -6.507812 8.910156 -6.210938 9.359375 -5.828125 C 9.816406 -5.453125 10.160156 -5.003906 10.390625 -4.484375 L 9.640625 -4.125 C 9.210938 -4.988281 8.507812 -5.585938 7.53125 -5.921875 C 6.863281 -6.140625 6.210938 -6.1875 5.578125 -6.0625 C 4.953125 -5.945312 4.398438 -5.675781 3.921875 -5.25 C 3.441406 -4.832031 3.09375 -4.300781 2.875 -3.65625 C 2.65625 -3 2.613281 -2.359375 2.75 -1.734375 C 2.882812 -1.117188 3.164062 -0.570312 3.59375 -0.09375 C 4.019531 0.382812 4.566406 0.734375 5.234375 0.953125 C 6.222656 1.285156 7.144531 1.226562 8 0.78125 L 8.390625 1.515625 C 7.890625 1.785156 7.34375 1.941406 6.75 1.984375 C 6.15625 2.023438 5.546875 1.941406 4.921875 1.734375 Z M 4.921875 1.734375 "/></g></g></g><g fill="#060644" fill-opacity="1"><g transform="translate(156.917482, 301.546324)"><g><path d="M 7.59375 0.890625 L 7.421875 1.671875 L 1.390625 0.3125 L 3.3125 -8.21875 L 9.15625 -6.90625 L 8.984375 -6.140625 L 4.03125 -7.25 L 3.34375 -4.203125 L 7.765625 -3.203125 L 7.59375 -2.4375 L 3.171875 -3.4375 L 2.453125 -0.265625 Z M 7.59375 0.890625 "/></g></g></g><g fill="#060644" fill-opacity="1"><g transform="translate(168.540701, 303.92443)"><g/></g></g><g fill="#060644" fill-opacity="1"><g transform="translate(175.2836, 304.891465)"><g><path d="M 7.84375 -3.890625 L 8.71875 -3.828125 L 8.515625 -0.5 C 8.085938 -0.175781 7.585938 0.0625 7.015625 0.21875 C 6.453125 0.382812 5.863281 0.445312 5.25 0.40625 C 4.382812 0.351562 3.609375 0.113281 2.921875 -0.3125 C 2.242188 -0.75 1.726562 -1.316406 1.375 -2.015625 C 1.019531 -2.710938 0.867188 -3.476562 0.921875 -4.3125 C 0.972656 -5.15625 1.21875 -5.90625 1.65625 -6.5625 C 2.09375 -7.21875 2.675781 -7.710938 3.40625 -8.046875 C 4.132812 -8.390625 4.9375 -8.535156 5.8125 -8.484375 C 6.476562 -8.441406 7.082031 -8.296875 7.625 -8.046875 C 8.175781 -7.796875 8.628906 -7.453125 8.984375 -7.015625 L 8.375 -6.453125 C 7.71875 -7.191406 6.859375 -7.59375 5.796875 -7.65625 C 5.085938 -7.695312 4.4375 -7.578125 3.84375 -7.296875 C 3.257812 -7.023438 2.785156 -6.625 2.421875 -6.09375 C 2.066406 -5.5625 1.867188 -4.953125 1.828125 -4.265625 C 1.785156 -3.585938 1.910156 -2.960938 2.203125 -2.390625 C 2.492188 -1.828125 2.910156 -1.367188 3.453125 -1.015625 C 3.992188 -0.660156 4.617188 -0.460938 5.328125 -0.421875 C 6.234375 -0.367188 7.015625 -0.546875 7.671875 -0.953125 Z M 7.84375 -3.890625 "/></g></g></g><g fill="#060644" fill-opacity="1"><g transform="translate(188.573544, 305.505644)"><g><path d="M 7.40625 -0.328125 L 5.28125 -3.0625 C 5.050781 -3.03125 4.816406 -3.007812 4.578125 -3 L 2.21875 -2.890625 L 2.34375 -0.109375 L 1.421875 -0.0625 L 1.03125 -8.796875 L 4.3125 -8.953125 C 5.425781 -8.992188 6.304688 -8.765625 6.953125 -8.265625 C 7.609375 -7.773438 7.957031 -7.0625 8 -6.125 C 8.03125 -5.4375 7.882812 -4.847656 7.5625 -4.359375 C 7.238281 -3.878906 6.765625 -3.519531 6.140625 -3.28125 L 8.390625 -0.375 Z M 4.515625 -3.765625 C 5.378906 -3.804688 6.03125 -4.03125 6.46875 -4.4375 C 6.90625 -4.84375 7.109375 -5.390625 7.078125 -6.078125 C 7.046875 -6.785156 6.789062 -7.316406 6.3125 -7.671875 C 5.84375 -8.023438 5.175781 -8.179688 4.3125 -8.140625 L 1.984375 -8.046875 L 2.1875 -3.671875 Z M 4.515625 -3.765625 "/></g></g></g><g fill="#060644" fill-opacity="1"><g transform="translate(201.203843, 304.736553)"><g><path d="M 7.421875 -1.890625 L 7.53125 -1.109375 L 1.40625 -0.203125 L 0.125 -8.859375 L 6.0625 -9.734375 L 6.1875 -8.953125 L 1.15625 -8.21875 L 1.609375 -5.140625 L 6.09375 -5.796875 L 6.203125 -5 L 1.71875 -4.34375 L 2.203125 -1.125 Z M 7.421875 -1.890625 "/></g></g></g><g fill="#060644" fill-opacity="1"><g transform="translate(213.028713, 302.822141)"><g><path d="M 6.125 -3.953125 L 1.390625 -2.765625 L 0.953125 -0.234375 L 0.03125 0 L 1.765625 -9.46875 L 2.640625 -9.6875 L 8.671875 -2.1875 L 7.71875 -1.953125 Z M 5.609375 -4.609375 L 2.421875 -8.640625 L 1.53125 -3.578125 Z M 5.609375 -4.609375 "/></g></g></g><g fill="#060644" fill-opacity="1"><g transform="translate(225.14374, 299.535252)"><g><path d="M 0.25 -8.53125 L -2.640625 -7.5 L -2.90625 -8.25 L 3.75 -10.640625 L 4.015625 -9.890625 L 1.125 -8.84375 L 3.8125 -1.359375 L 2.9375 -1.046875 Z M 0.25 -8.53125 "/></g></g></g><g fill="#060644" fill-opacity="1"><g transform="translate(235.108112, 295.762399)"><g/></g></g><g fill="#060644" fill-opacity="1"><g transform="translate(241.310092, 292.992595)"><g><path d="M 3.5 -11.828125 L 4.25 -2.296875 L 3.4375 -1.859375 L -4.125 -7.71875 L -3.25 -8.1875 L 3.3125 -3.09375 L 2.6875 -11.390625 Z M 3.5 -11.828125 "/></g></g></g><g fill="#060644" fill-opacity="1"><g transform="translate(252.079602, 286.977382)"><g><path d="M 5.859375 -4.921875 L 6.3125 -4.265625 L 1.171875 -0.796875 L -3.71875 -8.046875 L 1.265625 -11.40625 L 1.703125 -10.75 L -2.515625 -7.90625 L -0.78125 -5.328125 L 2.984375 -7.859375 L 3.4375 -7.203125 L -0.328125 -4.671875 L 1.484375 -1.96875 Z M 5.859375 -4.921875 "/></g></g></g><g fill="#060644" fill-opacity="1"><g transform="translate(261.943598, 280.135365)"><g><path d="M 1.03125 -12.3125 L 6.671875 -5.625 L 5.984375 -5.046875 L 3.390625 -8.125 L -0.796875 -4.59375 L 1.796875 -1.515625 L 1.09375 -0.921875 L -4.546875 -7.609375 L -3.84375 -8.203125 L -1.328125 -5.21875 L 2.859375 -8.75 L 0.34375 -11.734375 Z M 1.03125 -12.3125 "/></g></g></g><g fill="#060644" fill-opacity="1"><g transform="translate(272.231406, 271.078141)"><g><path d="M -5.203125 -7.171875 L -4.546875 -7.828125 L 1.65625 -1.65625 L 1 -1 Z M -5.203125 -7.171875 "/></g></g></g><g fill="#060644" fill-opacity="1"><g transform="translate(277.363286, 265.87746)"><g><path d="M 3.4375 -3.9375 C 2.875 -3.28125 2.21875 -2.8125 1.46875 -2.53125 C 0.726562 -2.25 -0.0234375 -2.171875 -0.796875 -2.296875 C -1.566406 -2.429688 -2.273438 -2.773438 -2.921875 -3.328125 C -3.566406 -3.867188 -4.019531 -4.507812 -4.28125 -5.25 C -4.539062 -5.988281 -4.585938 -6.75 -4.421875 -7.53125 C -4.265625 -8.3125 -3.910156 -9.035156 -3.359375 -9.703125 C -2.929688 -10.203125 -2.457031 -10.585938 -1.9375 -10.859375 C -1.414062 -11.140625 -0.875 -11.289062 -0.3125 -11.3125 L -0.265625 -10.484375 C -1.222656 -10.421875 -2.035156 -9.988281 -2.703125 -9.1875 C -3.160156 -8.65625 -3.445312 -8.070312 -3.5625 -7.4375 C -3.675781 -6.800781 -3.628906 -6.179688 -3.421875 -5.578125 C -3.210938 -4.972656 -2.847656 -4.453125 -2.328125 -4.015625 C -1.796875 -3.566406 -1.21875 -3.289062 -0.59375 -3.1875 C 0.03125 -3.082031 0.640625 -3.140625 1.234375 -3.359375 C 1.835938 -3.585938 2.367188 -3.96875 2.828125 -4.5 C 3.503906 -5.300781 3.789062 -6.179688 3.6875 -7.140625 L 4.515625 -7.21875 C 4.585938 -6.664062 4.53125 -6.101562 4.34375 -5.53125 C 4.15625 -4.96875 3.851562 -4.4375 3.4375 -3.9375 Z M 3.4375 -3.9375 "/></g></g></g><g fill="#060644" fill-opacity="1"><g transform="translate(285.322271, 256.13128)"><g><path d="M -6.390625 -6.140625 L -5.875 -6.890625 L 0.671875 -2.375 L 3.46875 -6.421875 L 4.125 -5.96875 L 0.8125 -1.171875 Z M -6.390625 -6.140625 "/></g></g></g><g fill="#060644" fill-opacity="1"><g transform="translate(291.430266, 247.047698)"><g><path d="M 3.03125 -7.03125 L 3.71875 -6.640625 L 0.6875 -1.234375 L -6.953125 -5.515625 L -4.015625 -10.75 L -3.3125 -10.359375 L -5.796875 -5.9375 L -3.078125 -4.40625 L -0.859375 -8.359375 L -0.171875 -7.984375 L -2.390625 -4.03125 L 0.453125 -2.4375 Z M 3.03125 -7.03125 "/></g></g></g><g fill="#060644" fill-opacity="1"><g transform="translate(297.105293, 236.526892)"><g><path d="M 1.625 -3.484375 C 1.363281 -2.878906 1.015625 -2.347656 0.578125 -1.890625 C 0.148438 -1.429688 -0.285156 -1.125 -0.734375 -0.96875 L -1.234375 -1.59375 C -0.816406 -1.738281 -0.414062 -2.015625 -0.03125 -2.421875 C 0.351562 -2.835938 0.660156 -3.300781 0.890625 -3.8125 C 1.203125 -4.53125 1.304688 -5.125 1.203125 -5.59375 C 1.109375 -6.0625 0.847656 -6.382812 0.421875 -6.5625 C 0.109375 -6.707031 -0.1875 -6.722656 -0.46875 -6.609375 C -0.75 -6.503906 -1.003906 -6.332031 -1.234375 -6.09375 C -1.460938 -5.863281 -1.75 -5.519531 -2.09375 -5.0625 C -2.5 -4.53125 -2.851562 -4.113281 -3.15625 -3.8125 C -3.457031 -3.519531 -3.804688 -3.3125 -4.203125 -3.1875 C -4.609375 -3.0625 -5.054688 -3.109375 -5.546875 -3.328125 C -5.953125 -3.503906 -6.273438 -3.769531 -6.515625 -4.125 C -6.753906 -4.488281 -6.875 -4.9375 -6.875 -5.46875 C -6.882812 -6 -6.742188 -6.59375 -6.453125 -7.25 C -6.253906 -7.707031 -5.992188 -8.125 -5.671875 -8.5 C -5.347656 -8.882812 -5.003906 -9.1875 -4.640625 -9.40625 L -4.09375 -8.828125 C -4.457031 -8.585938 -4.78125 -8.300781 -5.0625 -7.96875 C -5.34375 -7.632812 -5.5625 -7.285156 -5.71875 -6.921875 C -6.03125 -6.210938 -6.128906 -5.625 -6.015625 -5.15625 C -5.910156 -4.695312 -5.644531 -4.367188 -5.21875 -4.171875 C -4.894531 -4.035156 -4.59375 -4.015625 -4.3125 -4.109375 C -4.03125 -4.210938 -3.773438 -4.390625 -3.546875 -4.640625 C -3.316406 -4.898438 -3.03125 -5.253906 -2.6875 -5.703125 C -2.28125 -6.210938 -1.925781 -6.617188 -1.625 -6.921875 C -1.320312 -7.222656 -0.972656 -7.429688 -0.578125 -7.546875 C -0.179688 -7.671875 0.257812 -7.628906 0.75 -7.421875 C 1.144531 -7.242188 1.460938 -6.972656 1.703125 -6.609375 C 1.941406 -6.253906 2.0625 -5.804688 2.0625 -5.265625 C 2.0625 -4.722656 1.914062 -4.128906 1.625 -3.484375 Z M 1.625 -3.484375 "/></g></g></g><g fill="#060644" fill-opacity="1"><g transform="translate(110.554706, 190.709227)"><g><path d="M 0.976562 -0.0390625 L 8.96875 -0.0390625 C 8.96875 -0.0390625 7.371094 -0.820312 7.371094 -5.460938 L 7.371094 -50.777344 C 7.371094 -55.417969 8.96875 -55.925781 8.96875 -55.925781 L 0.976562 -55.925781 C 0.976562 -55.925781 2.613281 -55.378906 2.613281 -50.738281 L 2.613281 -5.460938 C 2.613281 -0.820312 0.976562 -0.0390625 0.976562 -0.0390625 Z M 0.976562 -0.0390625 "/></g></g></g><g fill="#060644" fill-opacity="1"><g transform="translate(121.279719, 190.709227)"><g><path d="M 39.976562 -0.0390625 L 47.96875 -0.0390625 C 47.96875 -0.0390625 46.058594 -0.820312 44.226562 -5.460938 L 24.492188 -55.886719 L 4.71875 -5.460938 C 2.925781 -0.820312 0.976562 -0.0390625 0.976562 -0.0390625 L 5.109375 -0.0390625 C 5.109375 -0.0390625 3.820312 -0.820312 5.617188 -5.460938 L 10.101562 -16.847656 L 35.023438 -16.847656 L 39.46875 -5.460938 C 41.300781 -0.820312 39.976562 -0.0390625 39.976562 -0.0390625 Z M 10.453125 -17.785156 L 22.542969 -48.710938 L 34.671875 -17.785156 Z M 10.453125 -17.785156 "/></g></g></g><g clip-path="url(#id4)"><path fill="#060644" d="M 306.828125 189.050781 C 308.898438 187.691406 312.472656 187.515625 318.738281 187.324219 C 312.472656 187.132812 308.898438 186.957031 306.828125 185.597656 C 307.445312 184.207031 308.777344 182.589844 310.820312 180.242188 C 308.472656 182.289062 306.855469 183.617188 305.464844 184.234375 C 304.109375 182.164062 303.929688 178.59375 303.738281 172.324219 C 303.546875 178.59375 303.371094 182.164062 302.015625 184.234375 C 300.621094 183.617188 299.003906 182.289062 296.65625 180.242188 C 298.703125 182.589844 300.03125 184.207031 300.652344 185.597656 C 298.578125 186.957031 295.007812 187.132812 288.738281 187.324219 C 295.007812 187.515625 298.578125 187.691406 300.652344 189.050781 C 300.03125 190.441406 298.703125 192.058594 296.65625 194.40625 C 299.003906 192.359375 300.621094 191.03125 302.015625 190.414062 C 303.371094 192.484375 303.546875 196.054688 303.738281 202.324219 C 303.929688 196.054688 304.109375 192.484375 305.464844 190.414062 C 306.859375 191.03125 308.472656 192.359375 310.820312 194.40625 C 308.777344 192.058594 307.445312 190.441406 306.828125 189.050781 Z M 306.828125 189.050781 " fill-opacity="1" fill-rule="nonzero"/></g><g clip-path="url(#id5)"><path fill="#060644" d="M 73.996094 189.050781 C 76.070312 187.691406 79.640625 187.515625 85.910156 187.324219 C 79.640625 187.132812 76.070312 186.957031 73.996094 185.597656 C 74.617188 184.207031 75.945312 182.589844 77.992188 180.242188 C 75.644531 182.289062 74.027344 183.617188 72.632812 184.234375 C 71.277344 182.164062 71.101562 178.59375 70.910156 172.324219 C 70.71875 178.59375 70.539062 182.164062 69.183594 184.234375 C 67.792969 183.617188 66.175781 182.289062 63.828125 180.242188 C 65.871094 182.589844 67.203125 184.207031 67.820312 185.597656 C 65.75 186.957031 62.175781 187.132812 55.910156 187.324219 C 62.175781 187.515625 65.75 187.691406 67.820312 189.050781 C 67.203125 190.441406 65.871094 192.058594 63.828125 194.40625 C 66.175781 192.359375 67.792969 191.03125 69.183594 190.414062 C 70.539062 192.484375 70.71875 196.054688 70.910156 202.324219 C 71.101562 196.054688 71.277344 192.484375 72.632812 190.414062 C 74.027344 191.03125 75.644531 192.359375 77.992188 194.40625 C 75.945312 192.058594 74.617188 190.441406 73.996094 189.050781 Z M 73.996094 189.050781 " fill-opacity="1" fill-rule="nonzero"/></g></svg>