<svg xmlns="http://www.w3.org/2000/svg" xmlns:xlink="http://www.w3.org/1999/xlink" width="100" zoomAndPan="magnify" viewBox="0 0 375 374.999991" height="70" preserveAspectRatio="xMidYMid meet" version="1.0"><defs><g/><clipPath id="id1"><path d="M 49.632812 49.632812 L 325.632812 49.632812 L 325.632812 325.632812 L 49.632812 325.632812 Z M 49.632812 49.632812 " clip-rule="nonzero"/></clipPath><clipPath id="id2"><path d="M 89.0625 89.0625 L 286.3125 89.0625 L 286.3125 286.3125 L 89.0625 286.3125 Z M 89.0625 89.0625 " clip-rule="nonzero"/></clipPath><clipPath id="id3"><path d="M 288.738281 172.324219 L 318.738281 172.324219 L 318.738281 202.324219 L 288.738281 202.324219 Z M 288.738281 172.324219 " clip-rule="nonzero"/></clipPath><clipPath id="id4"><path d="M 55.910156 172.324219 L 85.910156 172.324219 L 85.910156 202.324219 L 55.910156 202.324219 Z M 55.910156 172.324219 " clip-rule="nonzero"/></clipPath><clipPath id="id5"><path d="M 109 186 L 275 186 L 275 193.570312 L 109 193.570312 Z M 109 186 " clip-rule="nonzero"/></clipPath><clipPath id="id6"><path d="M 84.664062 160 L 305.703125 160 L 305.703125 193.570312 L 84.664062 193.570312 Z M 84.664062 160 " clip-rule="nonzero"/></clipPath></defs><g clip-path="url(#id1)"><path fill="#060644" d="M 187.632812 325.632812 C 111.5625 325.632812 49.632812 263.703125 49.632812 187.632812 C 49.632812 111.5625 111.5625 49.632812 187.632812 49.632812 C 263.703125 49.632812 325.632812 111.5625 325.632812 187.632812 C 325.632812 263.703125 263.703125 325.632812 187.632812 325.632812 Z M 187.632812 51.671875 C 112.648438 51.671875 51.671875 112.648438 51.671875 187.632812 C 51.671875 262.613281 112.648438 323.59375 187.632812 323.59375 C 262.613281 323.59375 323.59375 262.613281 323.59375 187.632812 C 323.59375 112.648438 262.613281 51.671875 187.632812 51.671875 Z M 187.632812 51.671875 " fill-opacity="1" fill-rule="nonzero"/></g><g clip-path="url(#id2)"><path fill="#060644" d="M 187.6875 286.3125 C 133.324219 286.3125 89.0625 242.050781 89.0625 187.6875 C 89.0625 133.324219 133.324219 89.0625 187.6875 89.0625 C 242.050781 89.0625 286.3125 133.324219 286.3125 187.6875 C 286.3125 242.050781 242.050781 286.3125 187.6875 286.3125 Z M 187.6875 90.519531 C 134.101562 90.519531 90.519531 134.101562 90.519531 187.6875 C 90.519531 241.273438 134.101562 284.855469 187.6875 284.855469 C 241.273438 284.855469 284.855469 241.273438 284.855469 187.6875 C 284.855469 134.101562 241.273438 90.519531 187.6875 90.519531 Z M 187.6875 90.519531 " fill-opacity="1" fill-rule="nonzero"/></g><g fill="#060644" fill-opacity="1"><g transform="translate(167.417828, 241.677405)"><g><path d="M 30.203125 -27.898438 L 41.113281 -0.03125 L 56.691406 -39.757812 C 58.101562 -43.417969 59.640625 -44.0625 59.640625 -44.0625 L 56.382812 -44.0625 C 56.382812 -44.0625 57.398438 -43.417969 55.984375 -39.757812 L 42.648438 -5.683594 L 29.3125 -39.757812 C 27.867188 -43.417969 28.914062 -44.0625 28.914062 -44.0625 L 22.613281 -44.0625 C 22.613281 -44.0625 24.121094 -43.417969 25.5625 -39.757812 L 29.867188 -28.789062 L 20.800781 -5.683594 L 7.464844 -39.757812 C 6.054688 -43.417969 7.066406 -44.0625 7.066406 -44.0625 L 0.769531 -44.0625 C 0.769531 -44.0625 2.304688 -43.417969 3.75 -39.757812 L 19.296875 -0.03125 Z M 30.203125 -27.898438 "/></g></g></g><g fill="#060644" fill-opacity="1"><g transform="translate(228.44016, 241.677405)"><g><path d="M 31.25 -5.101562 L 5.777344 -44.03125 L 0.769531 -44.03125 C 0.769531 -44.03125 2.242188 -43.109375 2.242188 -39.976562 L 2.242188 -4.300781 C 2.242188 -0.644531 0.984375 -0.03125 0.984375 -0.03125 L 4.238281 -0.03125 C 4.238281 -0.03125 2.949219 -0.644531 2.949219 -4.300781 L 2.949219 -40.003906 C 2.949219 -40.742188 3.011719 -41.359375 3.101562 -41.847656 C 3.441406 -41.359375 31.25 -0.03125 31.25 -0.03125 L 31.925781 -0.03125 L 31.957031 -40.003906 C 31.957031 -43.660156 33.246094 -44.03125 33.246094 -44.03125 L 29.988281 -44.03125 C 29.988281 -44.03125 31.25 -43.632812 31.25 -39.976562 Z M 31.25 -5.101562 "/></g></g></g><g fill="#060644" fill-opacity="1"><g transform="translate(95.555988, 124.348083)"><g><path d="M -6.265625 -6.28125 L -5.71875 -7.03125 L 1.375 -1.90625 L 0.828125 -1.15625 Z M -6.265625 -6.28125 "/></g></g></g><g fill="#060644" fill-opacity="1"><g transform="translate(99.393147, 119.032629)"><g><path d="M 1.640625 -8.609375 L 2.21875 -9.28125 L 4.75 -7.09375 C 4.75 -6.550781 4.640625 -6.003906 4.421875 -5.453125 C 4.203125 -4.910156 3.894531 -4.40625 3.5 -3.9375 C 2.925781 -3.28125 2.265625 -2.804688 1.515625 -2.515625 C 0.765625 -2.234375 0.00390625 -2.164062 -0.765625 -2.3125 C -1.546875 -2.457031 -2.253906 -2.804688 -2.890625 -3.359375 C -3.523438 -3.910156 -3.96875 -4.550781 -4.21875 -5.28125 C -4.476562 -6.019531 -4.523438 -6.785156 -4.359375 -7.578125 C -4.191406 -8.367188 -3.816406 -9.097656 -3.234375 -9.765625 C -2.804688 -10.273438 -2.328125 -10.671875 -1.796875 -10.953125 C -1.273438 -11.234375 -0.734375 -11.382812 -0.171875 -11.40625 L -0.09375 -10.578125 C -1.070312 -10.492188 -1.90625 -10.050781 -2.59375 -9.25 C -3.050781 -8.707031 -3.347656 -8.117188 -3.484375 -7.484375 C -3.617188 -6.847656 -3.582031 -6.226562 -3.375 -5.625 C -3.175781 -5.019531 -2.816406 -4.492188 -2.296875 -4.046875 C -1.773438 -3.597656 -1.203125 -3.316406 -0.578125 -3.203125 C 0.046875 -3.085938 0.664062 -3.140625 1.28125 -3.359375 C 1.894531 -3.578125 2.429688 -3.957031 2.890625 -4.5 C 3.484375 -5.1875 3.8125 -5.910156 3.875 -6.671875 Z M 1.640625 -8.609375 "/></g></g></g><g fill="#060644" fill-opacity="1"><g transform="translate(107.413563, 109.770332)"><g><path d="M 4.15625 -15.5 L 7.796875 -7 L 7.078125 -6.359375 L 0.1875 -10.203125 L 3.25 -2.921875 L 2.53125 -2.28125 L -5.5 -6.828125 L -4.796875 -7.453125 L 2.109375 -3.53125 L -0.96875 -10.890625 L -0.328125 -11.46875 L 6.625 -7.5625 L 3.484375 -14.90625 Z M 4.15625 -15.5 "/></g></g></g><g fill="#060644" fill-opacity="1"><g transform="translate(119.892261, 99.000348)"><g><path d="M 5.78125 -5.015625 L 6.234375 -4.359375 L 1.171875 -0.8125 L -3.84375 -7.984375 L 1.0625 -11.421875 L 1.53125 -10.765625 L -2.625 -7.859375 L -0.859375 -5.3125 L 2.859375 -7.90625 L 3.328125 -7.25 L -0.390625 -4.65625 L 1.46875 -2 Z M 5.78125 -5.015625 "/></g></g></g><g fill="#060644" fill-opacity="1"><g transform="translate(129.164409, 92.776882)"><g/></g></g><g fill="#060644" fill-opacity="1"><g transform="translate(134.398268, 89.687215)"><g><path d="M 5.171875 -5.140625 L 0.796875 -3 L 0.890625 -0.4375 L 0.03125 -0.015625 L -0.203125 -9.625 L 0.609375 -10.015625 L 8.03125 -3.921875 L 7.15625 -3.484375 Z M 4.546875 -5.65625 L 0.609375 -8.953125 L 0.78125 -3.828125 Z M 4.546875 -5.65625 "/></g></g></g><g fill="#060644" fill-opacity="1"><g transform="translate(144.907649, 84.699947)"><g><path d="M 4.6875 -1.59375 C 3.625 -1.207031 2.679688 -1.210938 1.859375 -1.609375 C 1.035156 -2.015625 0.414062 -2.800781 0 -3.96875 L -1.703125 -8.6875 L -0.828125 -9 L 0.859375 -4.328125 C 1.203125 -3.359375 1.675781 -2.71875 2.28125 -2.40625 C 2.882812 -2.09375 3.59375 -2.082031 4.40625 -2.375 C 5.226562 -2.675781 5.769531 -3.140625 6.03125 -3.765625 C 6.289062 -4.390625 6.25 -5.1875 5.90625 -6.15625 L 4.21875 -10.828125 L 5.0625 -11.125 L 6.765625 -6.40625 C 7.179688 -5.238281 7.207031 -4.238281 6.84375 -3.40625 C 6.476562 -2.582031 5.757812 -1.976562 4.6875 -1.59375 Z M 4.6875 -1.59375 "/></g></g></g><g fill="#060644" fill-opacity="1"><g transform="translate(156.829716, 80.622352)"><g><path d="M 1.09375 -8.484375 L -1.890625 -7.734375 L -2.078125 -8.5 L 4.78125 -10.21875 L 4.96875 -9.453125 L 1.984375 -8.703125 L 3.921875 -0.984375 L 3.03125 -0.765625 Z M 1.09375 -8.484375 "/></g></g></g><g fill="#060644" fill-opacity="1"><g transform="translate(166.41801, 78.274052)"><g><path d="M 5.21875 -0.671875 C 4.351562 -0.546875 3.546875 -0.625 2.796875 -0.90625 C 2.046875 -1.195312 1.425781 -1.644531 0.9375 -2.25 C 0.457031 -2.863281 0.15625 -3.585938 0.03125 -4.421875 C -0.0820312 -5.253906 0.00390625 -6.03125 0.296875 -6.75 C 0.585938 -7.476562 1.050781 -8.082031 1.6875 -8.5625 C 2.320312 -9.050781 3.070312 -9.359375 3.9375 -9.484375 C 4.789062 -9.609375 5.585938 -9.53125 6.328125 -9.25 C 7.078125 -8.96875 7.703125 -8.519531 8.203125 -7.90625 C 8.703125 -7.289062 9.007812 -6.566406 9.125 -5.734375 C 9.25 -4.898438 9.15625 -4.117188 8.84375 -3.390625 C 8.539062 -2.660156 8.070312 -2.054688 7.4375 -1.578125 C 6.8125 -1.097656 6.070312 -0.796875 5.21875 -0.671875 Z M 5.09375 -1.5 C 5.769531 -1.59375 6.363281 -1.832031 6.875 -2.21875 C 7.394531 -2.613281 7.769531 -3.101562 8 -3.6875 C 8.226562 -4.28125 8.289062 -4.914062 8.1875 -5.59375 C 8.09375 -6.269531 7.851562 -6.859375 7.46875 -7.359375 C 7.082031 -7.867188 6.585938 -8.238281 5.984375 -8.46875 C 5.378906 -8.695312 4.738281 -8.765625 4.0625 -8.671875 C 3.375 -8.566406 2.773438 -8.316406 2.265625 -7.921875 C 1.753906 -7.535156 1.378906 -7.046875 1.140625 -6.453125 C 0.898438 -5.859375 0.828125 -5.222656 0.921875 -4.546875 C 1.023438 -3.867188 1.273438 -3.28125 1.671875 -2.78125 C 2.066406 -2.28125 2.5625 -1.914062 3.15625 -1.6875 C 3.757812 -1.457031 4.40625 -1.394531 5.09375 -1.5 Z M 5.09375 -1.5 "/></g></g></g><g fill="#060644" fill-opacity="1"><g transform="translate(179.478535, 76.609512)"><g><path d="M 3.84375 -0.0625 C 3.1875 -0.0390625 2.554688 -0.125 1.953125 -0.3125 C 1.359375 -0.5 0.890625 -0.753906 0.546875 -1.078125 L 0.890625 -1.8125 C 1.210938 -1.5 1.640625 -1.253906 2.171875 -1.078125 C 2.703125 -0.910156 3.25 -0.835938 3.8125 -0.859375 C 4.59375 -0.890625 5.171875 -1.054688 5.546875 -1.359375 C 5.929688 -1.660156 6.113281 -2.039062 6.09375 -2.5 C 6.082031 -2.84375 5.96875 -3.113281 5.75 -3.3125 C 5.53125 -3.519531 5.265625 -3.671875 4.953125 -3.765625 C 4.640625 -3.867188 4.203125 -3.976562 3.640625 -4.09375 C 2.984375 -4.238281 2.457031 -4.378906 2.0625 -4.515625 C 1.664062 -4.648438 1.316406 -4.867188 1.015625 -5.171875 C 0.722656 -5.484375 0.566406 -5.910156 0.546875 -6.453125 C 0.535156 -6.898438 0.640625 -7.304688 0.859375 -7.671875 C 1.078125 -8.046875 1.421875 -8.347656 1.890625 -8.578125 C 2.367188 -8.816406 2.96875 -8.953125 3.6875 -8.984375 C 4.1875 -9.003906 4.675781 -8.953125 5.15625 -8.828125 C 5.644531 -8.703125 6.066406 -8.523438 6.421875 -8.296875 L 6.140625 -7.5625 C 5.765625 -7.78125 5.363281 -7.941406 4.9375 -8.046875 C 4.519531 -8.148438 4.113281 -8.195312 3.71875 -8.1875 C 2.945312 -8.15625 2.375 -7.984375 2 -7.671875 C 1.632812 -7.367188 1.457031 -6.984375 1.46875 -6.515625 C 1.488281 -6.160156 1.601562 -5.878906 1.8125 -5.671875 C 2.03125 -5.472656 2.300781 -5.320312 2.625 -5.21875 C 2.957031 -5.125 3.394531 -5.019531 3.9375 -4.90625 C 4.59375 -4.769531 5.117188 -4.628906 5.515625 -4.484375 C 5.921875 -4.347656 6.265625 -4.128906 6.546875 -3.828125 C 6.828125 -3.523438 6.976562 -3.109375 7 -2.578125 C 7.019531 -2.140625 6.921875 -1.734375 6.703125 -1.359375 C 6.484375 -0.992188 6.128906 -0.691406 5.640625 -0.453125 C 5.148438 -0.222656 4.550781 -0.09375 3.84375 -0.0625 Z M 3.84375 -0.0625 "/></g></g></g><g fill="#060644" fill-opacity="1"><g transform="translate(189.982811, 76.39409)"><g/></g></g><g fill="#060644" fill-opacity="1"><g transform="translate(195.975682, 76.478459)"><g><path d="M 14.5 -6.84375 L 10.390625 1.421875 L 9.421875 1.296875 L 7.90625 -6.46875 L 4.328125 0.59375 L 3.375 0.46875 L 1.65625 -8.609375 L 2.578125 -8.484375 L 4.078125 -0.671875 L 7.671875 -7.78125 L 8.53125 -7.671875 L 10.046875 0.1875 L 13.625 -6.96875 Z M 14.5 -6.84375 "/></g></g></g><g fill="#060644" fill-opacity="1"><g transform="translate(212.229541, 78.988389)"><g><path d="M 5.046875 1.46875 C 4.210938 1.238281 3.507812 0.835938 2.9375 0.265625 C 2.363281 -0.296875 1.972656 -0.953125 1.765625 -1.703125 C 1.566406 -2.453125 1.578125 -3.234375 1.796875 -4.046875 C 2.015625 -4.859375 2.40625 -5.535156 2.96875 -6.078125 C 3.53125 -6.628906 4.195312 -7 4.96875 -7.1875 C 5.75 -7.375 6.554688 -7.351562 7.390625 -7.125 C 8.222656 -6.894531 8.925781 -6.503906 9.5 -5.953125 C 10.070312 -5.398438 10.460938 -4.738281 10.671875 -3.96875 C 10.878906 -3.207031 10.875 -2.421875 10.65625 -1.609375 C 10.4375 -0.796875 10.039062 -0.117188 9.46875 0.421875 C 8.894531 0.960938 8.222656 1.328125 7.453125 1.515625 C 6.679688 1.710938 5.878906 1.695312 5.046875 1.46875 Z M 5.265625 0.671875 C 5.929688 0.847656 6.578125 0.859375 7.203125 0.703125 C 7.828125 0.554688 8.363281 0.257812 8.8125 -0.1875 C 9.257812 -0.632812 9.570312 -1.191406 9.75 -1.859375 C 9.925781 -2.523438 9.9375 -3.164062 9.78125 -3.78125 C 9.625 -4.394531 9.316406 -4.925781 8.859375 -5.375 C 8.398438 -5.832031 7.835938 -6.148438 7.171875 -6.328125 C 6.503906 -6.515625 5.859375 -6.53125 5.234375 -6.375 C 4.609375 -6.21875 4.066406 -5.914062 3.609375 -5.46875 C 3.148438 -5.03125 2.832031 -4.476562 2.65625 -3.8125 C 2.476562 -3.144531 2.472656 -2.5 2.640625 -1.875 C 2.804688 -1.257812 3.117188 -0.726562 3.578125 -0.28125 C 4.035156 0.164062 4.597656 0.484375 5.265625 0.671875 Z M 5.265625 0.671875 "/></g></g></g><g fill="#060644" fill-opacity="1"><g transform="translate(224.853113, 82.643706)"><g><path d="M 6.890625 2.734375 L 6.0625 -0.609375 C 5.84375 -0.671875 5.625 -0.75 5.40625 -0.84375 L 3.203125 -1.71875 L 2.171875 0.859375 L 1.328125 0.53125 L 4.5625 -7.59375 L 7.609375 -6.390625 C 8.640625 -5.972656 9.351562 -5.398438 9.75 -4.671875 C 10.144531 -3.953125 10.171875 -3.15625 9.828125 -2.28125 C 9.566406 -1.644531 9.1875 -1.171875 8.6875 -0.859375 C 8.1875 -0.554688 7.609375 -0.425781 6.953125 -0.46875 L 7.8125 3.109375 Z M 5.65625 -1.59375 C 6.457031 -1.269531 7.140625 -1.203125 7.703125 -1.390625 C 8.273438 -1.578125 8.691406 -1.988281 8.953125 -2.625 C 9.210938 -3.28125 9.195312 -3.867188 8.90625 -4.390625 C 8.625 -4.921875 8.082031 -5.347656 7.28125 -5.671875 L 5.109375 -6.53125 L 3.484375 -2.453125 Z M 5.65625 -1.59375 "/></g></g></g><g fill="#060644" fill-opacity="1"><g transform="translate(235.710308, 87.140763)"><g><path d="M 5.265625 -7.125 L 6.078125 -6.703125 L 2.4375 0.375 L 6.8125 2.609375 L 6.453125 3.3125 L 1.265625 0.65625 Z M 5.265625 -7.125 "/></g></g></g><g fill="#060644" fill-opacity="1"><g transform="translate(244.624522, 91.800052)"><g><path d="M 5.96875 -6.546875 L 8.953125 -4.609375 C 9.734375 -4.097656 10.316406 -3.492188 10.703125 -2.796875 C 11.097656 -2.109375 11.273438 -1.378906 11.234375 -0.609375 C 11.203125 0.160156 10.953125 0.898438 10.484375 1.609375 C 10.015625 2.328125 9.4375 2.859375 8.75 3.203125 C 8.070312 3.546875 7.332031 3.675781 6.53125 3.59375 C 5.738281 3.519531 4.953125 3.226562 4.171875 2.71875 L 1.1875 0.78125 Z M 4.578125 2.03125 C 5.222656 2.445312 5.867188 2.679688 6.515625 2.734375 C 7.160156 2.796875 7.757812 2.691406 8.3125 2.421875 C 8.875 2.148438 9.347656 1.71875 9.734375 1.125 C 10.117188 0.539062 10.320312 -0.0625 10.34375 -0.6875 C 10.375 -1.3125 10.234375 -1.90625 9.921875 -2.46875 C 9.609375 -3.039062 9.128906 -3.535156 8.484375 -3.953125 L 6.3125 -5.375 L 2.40625 0.609375 Z M 4.578125 2.03125 "/></g></g></g><g fill="#060644" fill-opacity="1"><g transform="translate(255.438505, 99.175086)"><g/></g></g><g fill="#060644" fill-opacity="1"><g transform="translate(260.227306, 102.882834)"><g><path d="M 12.359375 -0.484375 L 6.40625 5.9375 L 5.84375 5.421875 L 6.546875 -3.609375 L 1.71875 1.59375 L 1.046875 0.96875 L 7 -5.453125 L 7.5625 -4.9375 L 6.859375 4.109375 L 11.6875 -1.09375 Z M 12.359375 -0.484375 "/></g></g></g><g fill="#060644" fill-opacity="1"><g transform="translate(269.523742, 111.855411)"><g><path d="M 7.4375 -4.828125 L 8.0625 -4.140625 L 1.578125 1.734375 L 0.953125 1.046875 Z M 7.4375 -4.828125 "/></g></g></g><g fill="#060644" fill-opacity="1"><g transform="translate(273.929974, 116.709312)"><g><path d="M 8.09375 3.375 L 8.625 4.078125 L 5.953125 6.109375 C 5.421875 6.003906 4.910156 5.785156 4.421875 5.453125 C 3.929688 5.128906 3.5 4.722656 3.125 4.234375 C 2.59375 3.535156 2.269531 2.789062 2.15625 2 C 2.039062 1.207031 2.128906 0.445312 2.421875 -0.28125 C 2.710938 -1.007812 3.195312 -1.628906 3.875 -2.140625 C 4.539062 -2.648438 5.265625 -2.953125 6.046875 -3.046875 C 6.828125 -3.140625 7.582031 -3.023438 8.3125 -2.703125 C 9.039062 -2.378906 9.675781 -1.863281 10.21875 -1.15625 C 10.625 -0.625 10.910156 -0.0703125 11.078125 0.5 C 11.253906 1.070312 11.289062 1.632812 11.1875 2.1875 L 10.375 2.09375 C 10.488281 1.113281 10.222656 0.203125 9.578125 -0.640625 C 9.148438 -1.203125 8.632812 -1.613281 8.03125 -1.875 C 7.4375 -2.132812 6.820312 -2.222656 6.1875 -2.140625 C 5.5625 -2.066406 4.976562 -1.820312 4.4375 -1.40625 C 3.882812 -0.988281 3.488281 -0.488281 3.25 0.09375 C 3.007812 0.6875 2.929688 1.300781 3.015625 1.9375 C 3.109375 2.582031 3.375 3.191406 3.8125 3.765625 C 4.351562 4.484375 4.992188 4.953125 5.734375 5.171875 Z M 8.09375 3.375 "/></g></g></g><g fill="#060644" fill-opacity="1"><g transform="translate(75.045242, 229.538126)"><g><path d="M 7.109375 5.125 L 7.46875 5.921875 L 4.421875 7.296875 C 3.929688 7.078125 3.484375 6.75 3.078125 6.3125 C 2.671875 5.882812 2.335938 5.390625 2.078125 4.828125 C 1.722656 4.035156 1.578125 3.238281 1.640625 2.4375 C 1.703125 1.644531 1.957031 0.925781 2.40625 0.28125 C 2.863281 -0.363281 3.476562 -0.859375 4.25 -1.203125 C 5.019531 -1.546875 5.796875 -1.675781 6.578125 -1.59375 C 7.359375 -1.507812 8.066406 -1.222656 8.703125 -0.734375 C 9.347656 -0.253906 9.851562 0.382812 10.21875 1.1875 C 10.488281 1.800781 10.640625 2.40625 10.671875 3 C 10.710938 3.59375 10.617188 4.148438 10.390625 4.671875 L 9.625 4.390625 C 9.96875 3.472656 9.921875 2.53125 9.484375 1.5625 C 9.191406 0.914062 8.785156 0.394531 8.265625 0 C 7.742188 -0.394531 7.160156 -0.625 6.515625 -0.6875 C 5.878906 -0.757812 5.25 -0.65625 4.625 -0.375 C 4 -0.09375 3.503906 0.304688 3.140625 0.828125 C 2.773438 1.347656 2.5625 1.929688 2.5 2.578125 C 2.445312 3.222656 2.566406 3.867188 2.859375 4.515625 C 3.234375 5.335938 3.753906 5.945312 4.421875 6.34375 Z M 7.109375 5.125 "/></g></g></g><g fill="#060644" fill-opacity="1"><g transform="translate(80.700424, 241.583076)"><g><path d="M 3.75 6.390625 L 5.15625 3.234375 C 5.03125 3.046875 4.90625 2.851562 4.78125 2.65625 L 3.59375 0.609375 L 1.1875 2.015625 L 0.71875 1.21875 L 8.265625 -3.203125 L 9.921875 -0.359375 C 10.484375 0.597656 10.695312 1.484375 10.5625 2.296875 C 10.425781 3.109375 9.953125 3.753906 9.140625 4.234375 C 8.554688 4.578125 7.972656 4.71875 7.390625 4.65625 C 6.804688 4.59375 6.265625 4.34375 5.765625 3.90625 L 4.25 7.25 Z M 5.4375 2.234375 C 5.875 2.984375 6.375 3.453125 6.9375 3.640625 C 7.507812 3.835938 8.085938 3.765625 8.671875 3.421875 C 9.285156 3.054688 9.640625 2.582031 9.734375 2 C 9.828125 1.425781 9.65625 0.765625 9.21875 0.015625 L 8.046875 -2 L 4.265625 0.21875 Z M 5.4375 2.234375 "/></g></g></g><g fill="#060644" fill-opacity="1"><g transform="translate(87.275267, 252.392682)"><g><path d="M 5.140625 5.671875 L 4.5 6.140625 L 0.84375 1.140625 L 7.90625 -4.03125 L 11.453125 0.8125 L 10.8125 1.28125 L 7.8125 -2.8125 L 5.296875 -0.96875 L 7.96875 2.6875 L 7.328125 3.15625 L 4.65625 -0.5 L 2.03125 1.421875 Z M 5.140625 5.671875 "/></g></g></g><g fill="#060644" fill-opacity="1"><g transform="translate(94.485094, 261.959294)"><g><path d="M 6.359375 3.5625 L 3.09375 -0.046875 L 0.65625 0.734375 L 0.015625 0.015625 L 9.203125 -2.859375 L 9.796875 -2.1875 L 5.984375 6.640625 L 5.328125 5.921875 Z M 6.703125 2.828125 L 8.765625 -1.875 L 3.890625 -0.296875 Z M 6.703125 2.828125 "/></g></g></g><g fill="#060644" fill-opacity="1"><g transform="translate(103.042974, 271.144297)"><g><path d="M 7.671875 -3.75 L 5.40625 -5.828125 L 5.9375 -6.421875 L 11.15625 -1.640625 L 10.625 -1.046875 L 8.359375 -3.125 L 2.984375 2.734375 L 2.296875 2.109375 Z M 7.671875 -3.75 "/></g></g></g><g fill="#060644" fill-opacity="1"><g transform="translate(111.030866, 278.194281)"><g/></g></g><g fill="#060644" fill-opacity="1"><g transform="translate(116.376081, 282.394065)"><g><path d="M 8.78125 -4.640625 C 9.707031 -4.023438 10.285156 -3.316406 10.515625 -2.515625 C 10.742188 -1.722656 10.597656 -0.941406 10.078125 -0.171875 C 9.554688 0.609375 8.882812 1.039062 8.0625 1.125 C 7.25 1.207031 6.378906 0.941406 5.453125 0.328125 L 3.5 -1 L 1.953125 1.296875 L 1.1875 0.796875 L 6.0625 -6.46875 Z M 5.859375 -0.375 C 6.578125 0.113281 7.234375 0.328125 7.828125 0.265625 C 8.421875 0.203125 8.910156 -0.113281 9.296875 -0.6875 C 9.691406 -1.269531 9.800781 -1.847656 9.625 -2.421875 C 9.457031 -2.992188 9.015625 -3.523438 8.296875 -4.015625 L 6.375 -5.3125 L 3.9375 -1.671875 Z M 5.859375 -0.375 "/></g></g></g><g fill="#060644" fill-opacity="1"><g transform="translate(126.94978, 289.254661)"><g><path d="M 6.546875 3.453125 L 6.09375 0.046875 C 5.875 -0.046875 5.660156 -0.144531 5.453125 -0.25 L 3.375 -1.359375 L 2.078125 1.09375 L 1.25 0.671875 L 5.34375 -7.0625 L 8.25 -5.53125 C 9.238281 -5.007812 9.890625 -4.363281 10.203125 -3.59375 C 10.515625 -2.832031 10.453125 -2.035156 10.015625 -1.203125 C 9.691406 -0.597656 9.265625 -0.171875 8.734375 0.078125 C 8.203125 0.328125 7.609375 0.394531 6.953125 0.28125 L 7.4375 3.921875 Z M 5.796875 -0.96875 C 6.566406 -0.5625 7.242188 -0.421875 7.828125 -0.546875 C 8.410156 -0.671875 8.863281 -1.035156 9.1875 -1.640625 C 9.519531 -2.265625 9.570312 -2.851562 9.34375 -3.40625 C 9.113281 -3.957031 8.613281 -4.4375 7.84375 -4.84375 L 5.796875 -5.9375 L 3.75 -2.0625 Z M 5.796875 -0.96875 "/></g></g></g><g fill="#060644" fill-opacity="1"><g transform="translate(138.170501, 294.900753)"><g><path d="M 4.75 -7.484375 L 5.59375 -7.125 L 2.15625 0.921875 L 1.3125 0.5625 Z M 4.75 -7.484375 "/></g></g></g><g fill="#060644" fill-opacity="1"><g transform="translate(144.903447, 297.73964)"><g><path d="M 4.921875 1.734375 C 4.097656 1.460938 3.421875 1.03125 2.890625 0.4375 C 2.359375 -0.144531 2.007812 -0.820312 1.84375 -1.59375 C 1.6875 -2.363281 1.742188 -3.148438 2.015625 -3.953125 C 2.273438 -4.742188 2.703125 -5.398438 3.296875 -5.921875 C 3.890625 -6.441406 4.578125 -6.769531 5.359375 -6.90625 C 6.140625 -7.050781 6.941406 -6.988281 7.765625 -6.71875 C 8.378906 -6.507812 8.910156 -6.210938 9.359375 -5.828125 C 9.816406 -5.453125 10.160156 -5.003906 10.390625 -4.484375 L 9.640625 -4.125 C 9.210938 -4.988281 8.507812 -5.585938 7.53125 -5.921875 C 6.863281 -6.140625 6.210938 -6.1875 5.578125 -6.0625 C 4.953125 -5.945312 4.398438 -5.675781 3.921875 -5.25 C 3.441406 -4.832031 3.09375 -4.300781 2.875 -3.65625 C 2.65625 -3 2.613281 -2.359375 2.75 -1.734375 C 2.882812 -1.117188 3.164062 -0.570312 3.59375 -0.09375 C 4.019531 0.382812 4.566406 0.734375 5.234375 0.953125 C 6.222656 1.285156 7.144531 1.226562 8 0.78125 L 8.390625 1.515625 C 7.890625 1.785156 7.34375 1.941406 6.75 1.984375 C 6.15625 2.023438 5.546875 1.941406 4.921875 1.734375 Z M 4.921875 1.734375 "/></g></g></g><g fill="#060644" fill-opacity="1"><g transform="translate(156.917482, 301.546324)"><g><path d="M 7.59375 0.890625 L 7.421875 1.671875 L 1.390625 0.3125 L 3.3125 -8.21875 L 9.15625 -6.90625 L 8.984375 -6.140625 L 4.03125 -7.25 L 3.34375 -4.203125 L 7.765625 -3.203125 L 7.59375 -2.4375 L 3.171875 -3.4375 L 2.453125 -0.265625 Z M 7.59375 0.890625 "/></g></g></g><g fill="#060644" fill-opacity="1"><g transform="translate(168.540701, 303.92443)"><g/></g></g><g fill="#060644" fill-opacity="1"><g transform="translate(175.2836, 304.891465)"><g><path d="M 7.84375 -3.890625 L 8.71875 -3.828125 L 8.515625 -0.5 C 8.085938 -0.175781 7.585938 0.0625 7.015625 0.21875 C 6.453125 0.382812 5.863281 0.445312 5.25 0.40625 C 4.382812 0.351562 3.609375 0.113281 2.921875 -0.3125 C 2.242188 -0.75 1.726562 -1.316406 1.375 -2.015625 C 1.019531 -2.710938 0.867188 -3.476562 0.921875 -4.3125 C 0.972656 -5.15625 1.21875 -5.90625 1.65625 -6.5625 C 2.09375 -7.21875 2.675781 -7.710938 3.40625 -8.046875 C 4.132812 -8.390625 4.9375 -8.535156 5.8125 -8.484375 C 6.476562 -8.441406 7.082031 -8.296875 7.625 -8.046875 C 8.175781 -7.796875 8.628906 -7.453125 8.984375 -7.015625 L 8.375 -6.453125 C 7.71875 -7.191406 6.859375 -7.59375 5.796875 -7.65625 C 5.085938 -7.695312 4.4375 -7.578125 3.84375 -7.296875 C 3.257812 -7.023438 2.785156 -6.625 2.421875 -6.09375 C 2.066406 -5.5625 1.867188 -4.953125 1.828125 -4.265625 C 1.785156 -3.585938 1.910156 -2.960938 2.203125 -2.390625 C 2.492188 -1.828125 2.910156 -1.367188 3.453125 -1.015625 C 3.992188 -0.660156 4.617188 -0.460938 5.328125 -0.421875 C 6.234375 -0.367188 7.015625 -0.546875 7.671875 -0.953125 Z M 7.84375 -3.890625 "/></g></g></g><g fill="#060644" fill-opacity="1"><g transform="translate(188.573544, 305.505644)"><g><path d="M 7.40625 -0.328125 L 5.28125 -3.0625 C 5.050781 -3.03125 4.816406 -3.007812 4.578125 -3 L 2.21875 -2.890625 L 2.34375 -0.109375 L 1.421875 -0.0625 L 1.03125 -8.796875 L 4.3125 -8.953125 C 5.425781 -8.992188 6.304688 -8.765625 6.953125 -8.265625 C 7.609375 -7.773438 7.957031 -7.0625 8 -6.125 C 8.03125 -5.4375 7.882812 -4.847656 7.5625 -4.359375 C 7.238281 -3.878906 6.765625 -3.519531 6.140625 -3.28125 L 8.390625 -0.375 Z M 4.515625 -3.765625 C 5.378906 -3.804688 6.03125 -4.03125 6.46875 -4.4375 C 6.90625 -4.84375 7.109375 -5.390625 7.078125 -6.078125 C 7.046875 -6.785156 6.789062 -7.316406 6.3125 -7.671875 C 5.84375 -8.023438 5.175781 -8.179688 4.3125 -8.140625 L 1.984375 -8.046875 L 2.1875 -3.671875 Z M 4.515625 -3.765625 "/></g></g></g><g fill="#060644" fill-opacity="1"><g transform="translate(201.203843, 304.736553)"><g><path d="M 7.421875 -1.890625 L 7.53125 -1.109375 L 1.40625 -0.203125 L 0.125 -8.859375 L 6.0625 -9.734375 L 6.1875 -8.953125 L 1.15625 -8.21875 L 1.609375 -5.140625 L 6.09375 -5.796875 L 6.203125 -5 L 1.71875 -4.34375 L 2.203125 -1.125 Z M 7.421875 -1.890625 "/></g></g></g><g fill="#060644" fill-opacity="1"><g transform="translate(213.028713, 302.822141)"><g><path d="M 6.125 -3.953125 L 1.390625 -2.765625 L 0.953125 -0.234375 L 0.03125 0 L 1.765625 -9.46875 L 2.640625 -9.6875 L 8.671875 -2.1875 L 7.71875 -1.953125 Z M 5.609375 -4.609375 L 2.421875 -8.640625 L 1.53125 -3.578125 Z M 5.609375 -4.609375 "/></g></g></g><g fill="#060644" fill-opacity="1"><g transform="translate(225.14374, 299.535252)"><g><path d="M 0.25 -8.53125 L -2.640625 -7.5 L -2.90625 -8.25 L 3.75 -10.640625 L 4.015625 -9.890625 L 1.125 -8.84375 L 3.8125 -1.359375 L 2.9375 -1.046875 Z M 0.25 -8.53125 "/></g></g></g><g fill="#060644" fill-opacity="1"><g transform="translate(235.108112, 295.762399)"><g/></g></g><g fill="#060644" fill-opacity="1"><g transform="translate(241.310092, 292.992595)"><g><path d="M 3.5 -11.828125 L 4.25 -2.296875 L 3.4375 -1.859375 L -4.125 -7.71875 L -3.25 -8.1875 L 3.3125 -3.09375 L 2.6875 -11.390625 Z M 3.5 -11.828125 "/></g></g></g><g fill="#060644" fill-opacity="1"><g transform="translate(252.079602, 286.977382)"><g><path d="M 5.859375 -4.921875 L 6.3125 -4.265625 L 1.171875 -0.796875 L -3.71875 -8.046875 L 1.265625 -11.40625 L 1.703125 -10.75 L -2.515625 -7.90625 L -0.78125 -5.328125 L 2.984375 -7.859375 L 3.4375 -7.203125 L -0.328125 -4.671875 L 1.484375 -1.96875 Z M 5.859375 -4.921875 "/></g></g></g><g fill="#060644" fill-opacity="1"><g transform="translate(261.943598, 280.135365)"><g><path d="M 1.03125 -12.3125 L 6.671875 -5.625 L 5.984375 -5.046875 L 3.390625 -8.125 L -0.796875 -4.59375 L 1.796875 -1.515625 L 1.09375 -0.921875 L -4.546875 -7.609375 L -3.84375 -8.203125 L -1.328125 -5.21875 L 2.859375 -8.75 L 0.34375 -11.734375 Z M 1.03125 -12.3125 "/></g></g></g><g fill="#060644" fill-opacity="1"><g transform="translate(272.231406, 271.078141)"><g><path d="M -5.203125 -7.171875 L -4.546875 -7.828125 L 1.65625 -1.65625 L 1 -1 Z M -5.203125 -7.171875 "/></g></g></g><g fill="#060644" fill-opacity="1"><g transform="translate(277.363286, 265.87746)"><g><path d="M 3.4375 -3.9375 C 2.875 -3.28125 2.21875 -2.8125 1.46875 -2.53125 C 0.726562 -2.25 -0.0234375 -2.171875 -0.796875 -2.296875 C -1.566406 -2.429688 -2.273438 -2.773438 -2.921875 -3.328125 C -3.566406 -3.867188 -4.019531 -4.507812 -4.28125 -5.25 C -4.539062 -5.988281 -4.585938 -6.75 -4.421875 -7.53125 C -4.265625 -8.3125 -3.910156 -9.035156 -3.359375 -9.703125 C -2.929688 -10.203125 -2.457031 -10.585938 -1.9375 -10.859375 C -1.414062 -11.140625 -0.875 -11.289062 -0.3125 -11.3125 L -0.265625 -10.484375 C -1.222656 -10.421875 -2.035156 -9.988281 -2.703125 -9.1875 C -3.160156 -8.65625 -3.445312 -8.070312 -3.5625 -7.4375 C -3.675781 -6.800781 -3.628906 -6.179688 -3.421875 -5.578125 C -3.210938 -4.972656 -2.847656 -4.453125 -2.328125 -4.015625 C -1.796875 -3.566406 -1.21875 -3.289062 -0.59375 -3.1875 C 0.03125 -3.082031 0.640625 -3.140625 1.234375 -3.359375 C 1.835938 -3.585938 2.367188 -3.96875 2.828125 -4.5 C 3.503906 -5.300781 3.789062 -6.179688 3.6875 -7.140625 L 4.515625 -7.21875 C 4.585938 -6.664062 4.53125 -6.101562 4.34375 -5.53125 C 4.15625 -4.96875 3.851562 -4.4375 3.4375 -3.9375 Z M 3.4375 -3.9375 "/></g></g></g><g fill="#060644" fill-opacity="1"><g transform="translate(285.322271, 256.13128)"><g><path d="M -6.390625 -6.140625 L -5.875 -6.890625 L 0.671875 -2.375 L 3.46875 -6.421875 L 4.125 -5.96875 L 0.8125 -1.171875 Z M -6.390625 -6.140625 "/></g></g></g><g fill="#060644" fill-opacity="1"><g transform="translate(291.430266, 247.047698)"><g><path d="M 3.03125 -7.03125 L 3.71875 -6.640625 L 0.6875 -1.234375 L -6.953125 -5.515625 L -4.015625 -10.75 L -3.3125 -10.359375 L -5.796875 -5.9375 L -3.078125 -4.40625 L -0.859375 -8.359375 L -0.171875 -7.984375 L -2.390625 -4.03125 L 0.453125 -2.4375 Z M 3.03125 -7.03125 "/></g></g></g><g fill="#060644" fill-opacity="1"><g transform="translate(297.105293, 236.526892)"><g><path d="M 1.625 -3.484375 C 1.363281 -2.878906 1.015625 -2.347656 0.578125 -1.890625 C 0.148438 -1.429688 -0.285156 -1.125 -0.734375 -0.96875 L -1.234375 -1.59375 C -0.816406 -1.738281 -0.414062 -2.015625 -0.03125 -2.421875 C 0.351562 -2.835938 0.660156 -3.300781 0.890625 -3.8125 C 1.203125 -4.53125 1.304688 -5.125 1.203125 -5.59375 C 1.109375 -6.0625 0.847656 -6.382812 0.421875 -6.5625 C 0.109375 -6.707031 -0.1875 -6.722656 -0.46875 -6.609375 C -0.75 -6.503906 -1.003906 -6.332031 -1.234375 -6.09375 C -1.460938 -5.863281 -1.75 -5.519531 -2.09375 -5.0625 C -2.5 -4.53125 -2.851562 -4.113281 -3.15625 -3.8125 C -3.457031 -3.519531 -3.804688 -3.3125 -4.203125 -3.1875 C -4.609375 -3.0625 -5.054688 -3.109375 -5.546875 -3.328125 C -5.953125 -3.503906 -6.273438 -3.769531 -6.515625 -4.125 C -6.753906 -4.488281 -6.875 -4.9375 -6.875 -5.46875 C -6.882812 -6 -6.742188 -6.59375 -6.453125 -7.25 C -6.253906 -7.707031 -5.992188 -8.125 -5.671875 -8.5 C -5.347656 -8.882812 -5.003906 -9.1875 -4.640625 -9.40625 L -4.09375 -8.828125 C -4.457031 -8.585938 -4.78125 -8.300781 -5.0625 -7.96875 C -5.34375 -7.632812 -5.5625 -7.285156 -5.71875 -6.921875 C -6.03125 -6.210938 -6.128906 -5.625 -6.015625 -5.15625 C -5.910156 -4.695312 -5.644531 -4.367188 -5.21875 -4.171875 C -4.894531 -4.035156 -4.59375 -4.015625 -4.3125 -4.109375 C -4.03125 -4.210938 -3.773438 -4.390625 -3.546875 -4.640625 C -3.316406 -4.898438 -3.03125 -5.253906 -2.6875 -5.703125 C -2.28125 -6.210938 -1.925781 -6.617188 -1.625 -6.921875 C -1.320312 -7.222656 -0.972656 -7.429688 -0.578125 -7.546875 C -0.179688 -7.671875 0.257812 -7.628906 0.75 -7.421875 C 1.144531 -7.242188 1.460938 -6.972656 1.703125 -6.609375 C 1.941406 -6.253906 2.0625 -5.804688 2.0625 -5.265625 C 2.0625 -4.722656 1.914062 -4.128906 1.625 -3.484375 Z M 1.625 -3.484375 "/></g></g></g><g fill="#060644" fill-opacity="1"><g transform="translate(120.458581, 193.324235)"><g><path d="M 0.898438 -0.0351562 L 8.28125 -0.0351562 C 8.28125 -0.0351562 6.804688 -0.757812 6.804688 -5.039062 L 6.804688 -46.871094 C 6.804688 -51.15625 8.28125 -51.625 8.28125 -51.625 L 0.898438 -51.625 C 0.898438 -51.625 2.410156 -51.121094 2.410156 -46.835938 L 2.410156 -5.039062 C 2.410156 -0.757812 0.898438 -0.0351562 0.898438 -0.0351562 Z M 0.898438 -0.0351562 "/></g></g></g><g fill="#060644" fill-opacity="1"><g transform="translate(130.358601, 193.324235)"><g><path d="M 36.898438 -0.0351562 L 44.28125 -0.0351562 C 44.28125 -0.0351562 42.515625 -0.757812 40.824219 -5.039062 L 22.609375 -51.589844 L 4.355469 -5.039062 C 2.699219 -0.757812 0.898438 -0.0351562 0.898438 -0.0351562 L 4.714844 -0.0351562 C 4.714844 -0.0351562 3.527344 -0.757812 5.183594 -5.039062 L 9.324219 -15.550781 L 32.328125 -15.550781 L 36.433594 -5.039062 C 38.125 -0.757812 36.898438 -0.0351562 36.898438 -0.0351562 Z M 9.648438 -16.414062 L 20.808594 -44.964844 L 32.003906 -16.414062 Z M 9.648438 -16.414062 "/></g></g></g><g clip-path="url(#id3)"><path fill="#060644" d="M 306.828125 189.050781 C 308.898438 187.691406 312.472656 187.515625 318.738281 187.324219 C 312.472656 187.132812 308.898438 186.957031 306.828125 185.597656 C 307.445312 184.207031 308.777344 182.589844 310.820312 180.242188 C 308.472656 182.289062 306.855469 183.617188 305.464844 184.234375 C 304.109375 182.164062 303.929688 178.59375 303.738281 172.324219 C 303.546875 178.59375 303.371094 182.164062 302.015625 184.234375 C 300.621094 183.617188 299.003906 182.289062 296.65625 180.242188 C 298.703125 182.589844 300.03125 184.207031 300.652344 185.597656 C 298.578125 186.957031 295.007812 187.132812 288.738281 187.324219 C 295.007812 187.515625 298.578125 187.691406 300.652344 189.050781 C 300.03125 190.441406 298.703125 192.058594 296.65625 194.40625 C 299.003906 192.359375 300.621094 191.03125 302.015625 190.414062 C 303.371094 192.484375 303.546875 196.054688 303.738281 202.324219 C 303.929688 196.054688 304.109375 192.484375 305.464844 190.414062 C 306.859375 191.03125 308.472656 192.359375 310.820312 194.40625 C 308.777344 192.058594 307.445312 190.441406 306.828125 189.050781 Z M 306.828125 189.050781 " fill-opacity="1" fill-rule="nonzero"/></g><g clip-path="url(#id4)"><path fill="#060644" d="M 73.996094 189.050781 C 76.070312 187.691406 79.640625 187.515625 85.910156 187.324219 C 79.640625 187.132812 76.070312 186.957031 73.996094 185.597656 C 74.617188 184.207031 75.945312 182.589844 77.992188 180.242188 C 75.644531 182.289062 74.027344 183.617188 72.632812 184.234375 C 71.277344 182.164062 71.101562 178.59375 70.910156 172.324219 C 70.71875 178.59375 70.539062 182.164062 69.183594 184.234375 C 67.792969 183.617188 66.175781 182.289062 63.828125 180.242188 C 65.871094 182.589844 67.203125 184.207031 67.820312 185.597656 C 65.75 186.957031 62.175781 187.132812 55.910156 187.324219 C 62.175781 187.515625 65.75 187.691406 67.820312 189.050781 C 67.203125 190.441406 65.871094 192.058594 63.828125 194.40625 C 66.175781 192.359375 67.792969 191.03125 69.183594 190.414062 C 70.539062 192.484375 70.71875 196.054688 70.910156 202.324219 C 71.101562 196.054688 71.277344 192.484375 72.632812 190.414062 C 74.027344 191.03125 75.644531 192.359375 77.992188 194.40625 C 75.945312 192.058594 74.617188 190.441406 73.996094 189.050781 Z M 73.996094 189.050781 " fill-opacity="1" fill-rule="nonzero"/></g><g clip-path="url(#id5)"><path fill="#ffffff" d="M 266.601562 192.152344 C 260.59375 192.53125 254.59375 192.894531 248.597656 193.207031 C 248.089844 192.972656 247.324219 192.820312 246.191406 192.75 C 215.359375 191.171875 180.789062 190.289062 109.179688 186.566406 C 121.625 185.730469 180.460938 187.8125 217.277344 188.964844 C 234.953125 189.519531 252.640625 190.257812 270.300781 191.328125 C 270.625 191.335938 272.394531 191.503906 274.355469 191.765625 C 271.757812 191.855469 269.167969 191.984375 266.601562 192.152344 Z M 266.601562 192.152344 " fill-opacity="1" fill-rule="nonzero"/></g><g clip-path="url(#id6)"><path fill="#060644" d="M 85.066406 192.925781 C 85.453125 191.886719 85.847656 190.871094 86.4375 189.953125 C 85.835938 189.070312 85.589844 188.089844 85.675781 186.882812 C 85.710938 186.542969 85.769531 186.210938 85.855469 185.882812 C 86.015625 185.191406 86.226562 184.246094 85.910156 183.917969 L 85.875 183.878906 C 85.742188 183.742188 85.652344 183.578125 85.605469 183.390625 C 85.589844 183.316406 85.578125 183.242188 85.570312 183.175781 L 85.570312 183.085938 C 85.589844 180.929688 86.085938 179.53125 88.566406 178.722656 C 90.128906 178.214844 91.964844 178.207031 93.589844 178.199219 L 94.25 178.199219 C 96.625 178.171875 98.988281 178.054688 101.242188 177.855469 C 102.773438 177.601562 104.316406 177.066406 105.8125 176.550781 C 106.300781 176.378906 106.785156 176.210938 107.265625 176.050781 C 108.777344 175.5625 110.285156 175.058594 111.796875 174.5625 C 114.335938 173.726562 116.964844 172.859375 119.5625 172.023438 C 128.859375 169.035156 138.800781 165.964844 148.996094 164.175781 C 167.480469 160.570312 185.417969 159.820312 202.292969 161.949219 C 218.851562 164.035156 233.621094 171.832031 247.902344 179.359375 L 250.664062 180.816406 C 259.835938 180.859375 271.777344 181.328125 283.046875 184.597656 C 289.847656 186.566406 296.84375 189.273438 303.863281 192.664062 L 305.75 193.570312 L 300.25 193.558594 L 300.164062 193.523438 C 295.550781 191.527344 288.269531 188.699219 283.265625 187.148438 C 272.222656 183.722656 260.441406 183.230469 250.375 183.199219 C 250.179688 183.199219 249.996094 183.15625 249.824219 183.066406 L 249.789062 183.046875 C 248.757812 182.507812 247.726562 181.964844 246.703125 181.421875 C 232.855469 174.117188 218.535156 166.5625 202.589844 164.378906 C 186.132812 162.125 168.289062 162.835938 149.542969 166.496094 C 139.535156 168.25 129.570312 171.320312 120.226562 174.308594 C 117.382812 175.21875 114.507812 176.164062 111.726562 177.085938 L 108.367188 178.191406 L 106.792969 178.738281 C 105.132812 179.3125 103.410156 179.917969 101.667969 180.1875 L 101.578125 180.203125 L 101.449219 180.222656 C 99.082031 180.441406 96.484375 180.558594 93.496094 180.585938 C 92.042969 180.601562 90.601562 180.746094 89.175781 181.023438 C 88.597656 181.128906 88.308594 181.335938 88.15625 181.640625 C 91.46875 181.652344 94.6875 182.355469 97.433594 183.050781 L 98.199219 183.242188 C 100.269531 183.753906 102.613281 184.335938 104.449219 185.449219 C 104.808594 185.667969 105.011719 186.019531 105.019531 186.378906 C 105.03125 186.507812 105.027344 186.632812 105 186.757812 C 104.164062 190.828125 99.703125 191.132812 98.242188 191.230469 C 94.75 191.46875 91.488281 191.402344 88.550781 191.03125 C 87.996094 191.78125 87.625 192.609375 87.359375 193.273438 L 87.242188 193.570312 L 84.828125 193.570312 Z M 88.816406 188.679688 C 91.128906 188.964844 93.535156 188.964844 96.007812 188.929688 L 96.542969 188.929688 C 98.722656 188.917969 101.402344 188.902344 102.382812 187.0625 C 101.175781 186.503906 99.796875 186.148438 98.464844 185.796875 L 97.410156 185.515625 C 93.886719 184.542969 90.992188 184.074219 88.375 184.039062 C 88.40625 184.597656 88.308594 185.191406 88.214844 185.78125 C 87.984375 187.234375 87.902344 188.167969 88.816406 188.679688 Z M 88.816406 188.679688 " fill-opacity="1" fill-rule="nonzero"/></g><path fill="#060644" d="M 124.585938 180.996094 C 124.585938 180.996094 126.546875 181.746094 127.402344 181.910156 C 128.839844 182.183594 133.769531 182.738281 133.769531 182.738281 C 128.8125 183.164062 107.78125 181.859375 108.703125 181.859375 C 113.671875 181.859375 120.714844 181.320312 124.585938 180.996094 Z M 124.585938 180.996094 " fill-opacity="1" fill-rule="nonzero"/><path fill="#060644" d="M 123.289062 176.601562 C 122.503906 175.808594 123.269531 175.363281 123.480469 175.289062 C 144.023438 168.410156 166.324219 164.644531 188.105469 164.996094 C 189.914062 165.03125 191.722656 165.082031 193.519531 165.167969 C 206.964844 165.820312 220.089844 169.980469 232.105469 176.113281 L 232.125 176.113281 C 232.355469 176.226562 232.589844 176.34375 232.808594 176.464844 C 236.855469 178.570312 240.78125 180.886719 244.582031 183.410156 C 245.589844 184.144531 245.378906 184.695312 244.265625 184.839844 C 243.011719 184.941406 241.050781 184.894531 239.488281 184.90625 C 237.527344 184.933594 229.699219 184.792969 221.601562 184.628906 C 214.566406 184.484375 207.328125 184.316406 203.566406 184.199219 C 190.730469 183.808594 177.921875 183.402344 165.078125 183.199219 C 158.121094 183.085938 151.164062 182.9375 144.21875 182.566406 C 139.953125 182.34375 135.207031 182.363281 131.105469 181.03125 C 128.144531 180.121094 125.480469 178.824219 123.289062 176.601562 Z M 242.230469 183.582031 C 240.246094 182.316406 238.226562 181.101562 236.167969 179.929688 C 236.585938 181.003906 236.585938 182.203125 235.960938 183.46875 C 238.023438 183.535156 240.148438 183.667969 242.230469 183.582031 Z M 193.148438 182.335938 C 200.675781 182.59375 208.203125 182.917969 215.738281 183.097656 L 221.628906 183.222656 L 226.265625 183.308594 C 225.132812 181.269531 225.1875 179.632812 225.765625 178.4375 C 226.433594 177.027344 227.804688 176.230469 228.777344 176.074219 C 217.707031 170.777344 205.777344 167.25 193.535156 166.601562 C 191.722656 166.507812 189.902344 166.441406 188.085938 166.410156 C 190.425781 171.425781 191.816406 176.992188 193.148438 182.335938 Z M 185.78125 182.367188 L 187.238281 182.382812 C 186.855469 178.285156 185.257812 171.921875 184.324219 167.917969 C 184.324219 167.917969 185.410156 178.398438 185.78125 182.367188 Z M 150.761719 181.421875 C 159.726562 181.738281 168.699219 181.824219 177.664062 181.929688 L 180.160156 181.976562 C 180.101562 176.800781 179.664062 171.632812 179.359375 166.46875 C 171.085938 166.75 162.867188 167.582031 154.703125 168.960938 C 154.6875 168.980469 154.667969 168.996094 154.648438 169.011719 C 150.410156 172.664062 146.480469 176.773438 142.855469 181.0625 C 145.492188 181.222656 148.128906 181.328125 150.761719 181.421875 Z M 138.914062 180.785156 C 139.636719 180.84375 140.363281 180.890625 141.09375 180.945312 C 144.464844 176.894531 148.109375 172.96875 152.03125 169.417969 C 142.875 171.089844 133.875 173.378906 125.03125 176.285156 C 126.890625 177.910156 129.066406 178.910156 131.476562 179.652344 C 133.890625 180.394531 136.449219 180.574219 138.914062 180.785156 Z M 138.914062 180.785156 " fill-opacity="1" fill-rule="nonzero"/></svg>